<mxfile host="app.diagrams.net" agent="Mozilla/5.0 (Macintosh; Intel Mac OS X 10_15_7) AppleWebKit/537.36 (KHTML, like Gecko) Chrome/133.0.0.0 Safari/537.36" version="26.0.13">
  <diagram name="Page-1" id="D-Ux_muypKe-Cg7ZffEK">
    <mxGraphModel dx="1268" dy="989" grid="1" gridSize="10" guides="1" tooltips="1" connect="1" arrows="1" fold="1" page="1" pageScale="1" pageWidth="850" pageHeight="1100" math="0" shadow="0">
      <root>
        <mxCell id="0" />
        <mxCell id="1" parent="0" />
        <mxCell id="aLoimT9QGTSCDSDaQHRl-3" value="" style="rounded=0;whiteSpace=wrap;html=1;" vertex="1" parent="1">
          <mxGeometry x="430" y="590" width="120" height="60" as="geometry" />
        </mxCell>
        <mxCell id="aLoimT9QGTSCDSDaQHRl-1" value="" style="shape=image;verticalLabelPosition=bottom;labelBackgroundColor=default;verticalAlign=top;aspect=fixed;imageAspect=0;image=data:image/png,iVBORw0KGgoAAAANSUhEUgAAAX8AAAEfCAYAAACpsMY9AAAKsGlDQ1BJQ0MgUHJvZmlsZQAASImVlwdUk9kSgO//pzdaINIJvUlvAaSEHmqkg42QBAglhkBQsKGyuIJrQUQEbFgBBVelyCoiFiwsAgp2F0QU1HWxICqW9wOH4O47773z5pzJfGcyd2buzb3nTACg0DkiUSosB0CaMFMc6utBj46JpeNGAAyoQB5ggTqHmyFistmBAJEZ+3f50AegSXvLbDLXv3//X0Wex8/gAgCxEY7nZXDTED6N6GeuSJwJAOoE4tddlima5NsIK4qRBhEenuTEaf4yyfFTjJabigkP9URYDwA8mcMRJwJAtkT89CxuIpKHPFnLUsgTCBHORdg1LW0pD+FWhI2QGBHCk/kZ8T/kSfxbznhpTg4nUcrTe5kSvJcgQ5TKyf4/j+N/S1qqZKaGIaLkJLFfKGJpyJk9TVkaIGVhfHDIDAt4U/FTnCTxi5hhboZn7AxnpIaxZpjH8QqQ5kkNDpzhBIGPNEaQyQqfYX6Gd9gMi5eGSusmiD2ZM8wRz/YgSYmQ+pP4LGn+nKTwqBnOEkQGS3tLCQuYjfGU+sWSUOle+EJfj9m6PtJzSMv4Ye8ClnRtZlK4n/QcOLP984XM2ZwZ0dLeeHwv79mYCGm8KNNDWkuUypbG81N9pf6MrDDp2kzkcs6uZUvPMJnjz55h4AfYgA68QTCIBDEI2QBbgPzqmfzlmZOb8VwqyhYLEpMy6UzkxfHpLCHXfC7d2tLaDoDJ9zt9Pd7dnXqXEA0/60t7ilxrKwBgx1lf3HEAzmwDQEFp1mfkBYCMKwAtf3Al4qxpH3ryAwOIQBYoAhWgCXSBETAD1sAeOAN3pFt/EALCkX4XI70mgTQgBsvASrAW5INCsBXsAGVgLzgAjoLj4CRoBGfBBXAF3ABdoBc8AP1gCLwEo+ADmIAgCAdRICqkAmlB+pApZA0xIFfIGwqEQqEYKA5KhISQBFoJrYcKoSKoDNoPVUG/QmegC9A1qBu6Bw1AI9Bb6DOMgsmwIqwBG8AWMANmwgFwOLwIToTT4Rw4D94Ml8KV8DG4Ab4A34B74X74JTyGAigSiobSRpmhGChPVAgqFpWAEqNWowpQJahKVC2qGdWOuoXqR71CfUJj0VQ0HW2Gdkb7oSPQXHQ6ejV6E7oMfRTdgL6EvoUeQI+iv2EoGHWMKcYJw8JEYxIxyzD5mBLMYUw95jKmFzOE+YDFYmlYQ6wD1g8bg03GrsBuwu7G1mFbsd3YQewYDodTwZniXHAhOA4uE5eP24U7hjuP68EN4T7iSXgtvDXeBx+LF+LX4Uvw1fgWfA/+OX6CIEfQJzgRQgg8QjZhC+EgoZlwkzBEmCDKEw2JLsRwYjJxLbGUWEu8THxIfEcikXRIjqT5JAEpl1RKOkG6ShogfSIrkE3InuSFZAl5M/kIuZV8j/yOQqEYUNwpsZRMymZKFeUi5THlowxVxlyGJcOTWSNTLtMg0yPzWpYgqy/LlF0smyNbIntK9qbsKzmCnIGcpxxHbrVcudwZuTtyY/JUeSv5EPk0+U3y1fLX5IcVcAoGCt4KPIU8hQMKFxUGqSiqLtWTyqWupx6kXqYOKWIVDRVZismKhYrHFTsVR5UUlGyVIpWWK5UrnVPqp6FoBjQWLZW2hXaS1kf7PEdjDnMOf87GObVzeuaMK6spuyvzlQuU65R7lT+r0FW8VVJUtqk0qjxSRauaqM5XXaa6R/Wy6is1RTVnNa5agdpJtfvqsLqJeqj6CvUD6h3qYxqaGr4aIo1dGhc1XmnSNN01kzWLNVs0R7SoWq5aAq1irfNaL+hKdCY9lV5Kv0Qf1VbX9tOWaO/X7tSe0DHUidBZp1On80iXqMvQTdAt1m3THdXT0gvSW6lXo3dfn6DP0E/S36nfrj9uYGgQZbDBoNFg2FDZkGWYY1hj+NCIYuRmlG5UaXTbGGvMME4x3m3cZQKb2JkkmZSb3DSFTe1NBaa7TbvnYuY6zhXOrZx7x4xsxjTLMqsxGzCnmQearzNvNH9toWcRa7HNot3im6WdZarlQcsHVgpW/lbrrJqt3lqbWHOty61v21BsfGzW2DTZvLE1teXb7rG9a0e1C7LbYNdm99XewV5sX2s/4qDnEOdQ4XCHochgMzYxrjpiHD0c1ziedfzkZO+U6XTS6S9nM+cU52rn4XmG8/jzDs4bdNFx4bjsd+l3pbvGue5z7XfTduO4Vbo9cdd157kfdn/ONGYmM48xX3tYeog96j3GPZ08V3m2eqG8fL0KvDq9FbwjvMu8H/vo+CT61PiM+tr5rvBt9cP4Bfht87vD0mBxWVWsUX8H/1X+lwLIAWEBZQFPAk0CxYHNQXCQf9D2oIfB+sHC4MYQEMIK2R7yiG3ITmf/Nh87nz2/fP6zUKvQlaHtYdSwJWHVYR/CPcK3hD+IMIqQRLRFykYujKyKHI/yiiqK6o+2iF4VfSNGNUYQ0xSLi42MPRw7tsB7wY4FQwvtFuYv7FtkuGj5omuLVRenLj63RHYJZ8mpOExcVFx13BdOCKeSMxbPiq+IH+V6cndyX/LcecW8Eb4Lv4j/PMEloShhONElcXviSJJbUknSK4GnoEzwJtkveW/yeEpIypGU76lRqXVp+LS4tDNCBWGK8NJSzaXLl3aLTEX5ov50p/Qd6aPiAPHhDChjUUZTpiIyKHVIjCQ/SQayXLPKsz4ui1x2arn8cuHyjmyT7I3Zz3N8cg6tQK/grmhbqb1y7cqBVcxV+1dDq+NXt63RXZO3ZijXN/foWuLalLW/r7NcV7Tu/fqo9c15Gnm5eYM/+f5Uky+TL86/s8F5w96f0T8Lfu7caLNx18ZvBbyC64WWhSWFXzZxN13/xeqX0l++b07Y3LnFfsuerditwq1929y2HS2SL8opGtwetL2hmF5cUPx+x5Id10psS/buJO6U7OwvDSxt2qW3a+uuL2VJZb3lHuV1FeoVGyvGd/N29+xx31O7V2Nv4d7P+wT77u733d9QaVBZcgB7IOvAs4ORB9sPMQ5VHVY9XHj46xHhkf6joUcvVTlUVVWrV2+pgWskNSPHFh7rOu51vKnWrHZ/Ha2u8AQ4ITnx4te4X/tOBpxsO8U4VXta/3RFPbW+oAFqyG4YbUxq7G+Kaeo+43+mrdm5uf4389+OnNU+W35O6dyWFmJLXsv38znnx1pFra8uJF4YbFvS9uBi9MXbl+Zf6rwccPnqFZ8rF9uZ7eevulw9e83p2pnrjOuNN+xvNHTYddT/bvd7fad9Z8NNh5tNXY5dzd3zult63Hou3PK6deU26/aN3uDe7r6Ivrt3Ft7pv8u7O3wv9d6b+1n3Jx7kPsQ8LHgk96jksfrjyj+M/6jrt+8/N+A10PEk7MmDQe7gy6cZT78M5T2jPCt5rvW8ath6+OyIz0jXiwUvhl6KXk68yv9T/s+K10avT//l/lfHaPTo0Bvxm+9vN71TeXfkve37tjH22OMPaR8mxgs+qnw8+onxqf1z1OfnE8u+4L6UfjX+2vwt4NvD72nfv4s4Ys7UKIBCFE5IAODtEQAoMQBQuwAgLpier6cEmv5PMEXgP/H0DD4l9gAcygUgAtEgRPdNziCIUloBYLsDEO4OYBsbqc7MwlNz+6TojAJgjUEmB6hnZ00u+IdMz/Q/9P1PC6RZ/2b/BRVsCOLFNTcKAAAAVmVYSWZNTQAqAAAACAABh2kABAAAAAEAAAAaAAAAAAADkoYABwAAABIAAABEoAIABAAAAAEAAAF/oAMABAAAAAEAAAEfAAAAAEFTQ0lJAAAAU2NyZWVuc2hvdOc8aZ4AAAHWaVRYdFhNTDpjb20uYWRvYmUueG1wAAAAAAA8eDp4bXBtZXRhIHhtbG5zOng9ImFkb2JlOm5zOm1ldGEvIiB4OnhtcHRrPSJYTVAgQ29yZSA2LjAuMCI+CiAgIDxyZGY6UkRGIHhtbG5zOnJkZj0iaHR0cDovL3d3dy53My5vcmcvMTk5OS8wMi8yMi1yZGYtc3ludGF4LW5zIyI+CiAgICAgIDxyZGY6RGVzY3JpcHRpb24gcmRmOmFib3V0PSIiCiAgICAgICAgICAgIHhtbG5zOmV4aWY9Imh0dHA6Ly9ucy5hZG9iZS5jb20vZXhpZi8xLjAvIj4KICAgICAgICAgPGV4aWY6UGl4ZWxZRGltZW5zaW9uPjI4NzwvZXhpZjpQaXhlbFlEaW1lbnNpb24+CiAgICAgICAgIDxleGlmOlBpeGVsWERpbWVuc2lvbj4zODM8L2V4aWY6UGl4ZWxYRGltZW5zaW9uPgogICAgICAgICA8ZXhpZjpVc2VyQ29tbWVudD5TY3JlZW5zaG90PC9leGlmOlVzZXJDb21tZW50PgogICAgICA8L3JkZjpEZXNjcmlwdGlvbj4KICAgPC9yZGY6UkRGPgo8L3g6eG1wbWV0YT4KB7aDWgAAQABJREFUeAHsfQWAXNX1/je6btnduBF3KAkaEooEKS3FSyjFalT+WClVoMCPIi3a0kKhFK9AKe6BYCEhIW7EdTfJus+O/r/vvplkEzYhsjK7e2/ydt68ue/Kue9959xzzj3XFWOCTZYClgKWApYCXYoC7i7VW9tZSwFLAUsBSwFDAQv+9kGwFLAUsBToghSw4N8FB9122VLAUsBSwIK/fQYsBSwFLAW6IAUs+HfBQbddthSwFLAUsOBvnwFLAUsBS4EuSAEL/l1w0G2XLQUsBSwFLPjbZ8BSwFLAUqALUsCCfxccdNtlSwFLAUsBC/72GbAUsBSwFOiCFLDg3wUH3XbZUsBSwFLAgr99BiwFLAUsBbogBSz4d8FBt122FLAUsBSw4G+fAUsBSwFLgS5IAQv+XXDQbZctBSwFLAUs+NtnwFLAUsBSoAtSwNsF+2y7bClgKbCfFEjs/OQy9+ubCzH+i3BPKC/c5jzmivKqG5FoFJ54joibV6JuuHhLzBMzv+9nE+xtLUQBK/m3ECFtMZYCXYECAn0H+NVb58zFT08scTVKdHchSjbgdkWYxY2QmzAj4OcdEYM4zGNTu1PASv7tPgS2AZYCHZsCkv9jbv6NNqK8tAorVq7CitUrUFVajYKevTBqzHD0798XOVl5ZAhiDF4zI+jYve74rXfZPXw7/iDaHlgKtB0FHFWP6tPu3y6jx4mhvqYc/3nqcTz70lvoPXgcjp90NLKz3SjbsgVvv/oSKmNZ+M4Pf4SzphxD6OccQLMBm9qVAhb825X8tnJLgY5GgR3gT/hn4yMINlTh/lt+h5vvfRKX/Po23HzNpchNDyIcy6SEH0F5WRl+f93lePyV2fjdnx/F5eeeDG9CS9TRut+J2ttm4B/jZM8VI7enMchJjnFoh95wB1X1SCnZ58Ohg/1rKZA8FJB5V1p+pQil/wg+fOsVfOuCS5E57FjMf/dZpKVSmxzz0OQbZg4aejk7+Hz+hzj/7O9gU2Mm/v3GKzh+7OB4GYm3vClTSZ7eduaWtNncKxYLk45RRPmwrFq5GC//97+4++4/YtqMBbzGB4rXt67/HLfdfDM+WrBSjxWv8YFIcILOPAq2b5YCHYICznuq11I6H72frkgDHrrjdmytjOAnv7gW6al+qoLc1OpQ3HOJAbj5GcOQ0eMxacJXUFmyDv/553OoDwYJB877bV7xWEIo7BCE6BSNbDPwd8NPJwA+CmT0/XsNQYqvCnf8+gb87Yl/o64hwAfEjaLVS3Hf/Xfh5psfQDhCmYHGoZ2SZQQ7kcN+sRRoWwpI4uc7STCP8d10xbzYsuYzvP7BZ0jL7YlTJh7Md1Y/670lY1AeHp6oF15fGo47ehwioRBmfvQJqioDzKjZfzzJdmBTm1KgzcA/Rrcvl7g7p4OeTD+mnDYVl089GXNnzURxSTUfEODgr56OJ+//NTJz8uHZbhCKPxT22WjTB8NWZinQLAXiLp1RhDQ3x/JPZqKS/vx5PQeiUOoezu5N4qwgyvm7mSEQZWLwof+wfrQBxLBp40bUNjQ4M/sE6G93FW22VnuxFSjQduDPQY9SIIhqAQgZgItTwvO+dxGq16zA3LXr2TV6BlMS6JVXiFPOOoEGIfPEUDqQFMEU/3C+2L+WApYC7UGBGKfu+mdkdgJ35aZKunkCaRnZ8CeAXA3j+6vlX4L9iKPERWZurrmztrYGjVL7uGURSKh72gyK2oNsSVlnm1HcTcBXctYBCsl9GDDqMIzrk4aX3vuEiz+oH4zV45n3t+LCkw/nQxFPfH6s0J8ghv20FGhfCph3kX9cVOVIYHNnp3LlLt/RaIgQT7meErzg3qzhFVfgfyp9DCOIhmkA5ovt9XD273FW+5oM7dulLlt7m4G/ZnVa3i3XLwPnlOi9qbkY+ZWBWPDOZ3p6sOyzORh5/LFIb8YPTA+dlotHedhkKWAp0D4UkGOGUeVI9qekf9CYYUjhu11Ztg0BgjvX9ZrZut5XHXpddYsk/K3rioy037NXD6SlpfIHGoMT3TBegLrDpraiQJuBv6aKei5A+DeqHH5NTUnBqLHjsHHpp1hdXoHF67ZhyvhRTR4IZmc+PWz6KC8vR11dHc9sshSwFGgPChilj9Q7fCFl2B0+4TgM6V2IyuJ1mL9hqwF8tctNxFeEHyCIKF95vsKYPX8lvPwycuxoZGVlmNkBf2E5usPRDOjMprahQJuBf3Pdcbl9GDHkEGSgBNPe/xSelEJ065ZG42/zD8KGDetRX1/PB8lxM2uuTHvNUsBSoPUoYN49ojUXCLESF3yZffDdy86GO1iGx554ldcdQ3AjbXoeV4jefanGmaOmYj29gmbAm5WLU089G93S00wjjWeQUQYYDtB6Dbclf4EC7Qr+enh69+uN7AwP3n57JiZOHg8/3ccizWC/HrrNmzejurrGuI99wQ30C12zFywFLAVamgLy4XdROIvS8CtVrovrd86/7AqcOnkCXn3kPrz6yQK6aQMp9OGP0s4Xk+QfDeP1f/0bi1cX4+tn/wBnff0oMgUqfLgWQGVII6C5vTNTaOkW2/J2R4F2Bv8Y8gu7IX/AV/CLa76L7jmZfJrUpC9KAQL/kpJSHiVG76/vNlkKWAq0LQWE1Y7btuo16I/CfkPxxz/dgylj83Ddj3+CF99+36h5tKI/QJfOf/79z/jdXU/izB9ejfv/8HP0zNCaH8G93nWW0c4opJ50xdRm4R2aJS6NvHPeewUrIjmYSkMvPIwHQi8gn3xCmzwQAvotDBD1v/+9gB49euKss84w0n+zZdqLlgKWAq1HAb6LDvjL2VNGX8G3PP4pt0cj+M9jf8e99/4JW4JhDOk7BCtXLcOoQybge1dchdMnHUUvH0r4kvqlFqL8JoOvi9+N+ifh1t16rbclN6FAE4htcrUVTqOcHkbNEm7p6+m1wzrKt67DioogTj3iMIX75kOk5eBMjgVoeysE/nPnzucD5jLSf2lpqdH7b89gTywFLAX2iwIKutI0JebTIb6hgnRnFp44iyEs4JYLp7z2xAjMDeQA8txx+XHuJT/As/95AmN6FuL9915HRZ0LJ512Fk6eeBhcCvnDxZ5y++YdJolx2NQ+FPD8jqktqlb8HgYCweL3X8I/X/oQhYUePPz0NJxz9jeRn5st9R8fCAWBkiiReDSclpXTE2jGJ586DxrzBQIBDBnCwFC75GuLftg6LAU6FQWI4dpgxfjq87WT7dW8i2GKWny/ojwkleuN1HcXHfX1XQsyddFF3b5ZuR9/dxX2IaugO7520omoLN+GhXTffmfah2igIeArh49Huj+F+SXGOcmUaQpKXIn/YD9anQJtpvaRf7Aemrt+cTnueeoNHDzlTPzzr7cjg1Z/8zBIB2jGnw+VhIH4syCpf/bsOZg9Z54hhiYFKVxGfs45ZyMnJ6fVCWQrsBTozBQwbvt0sBDgS4WjpHessSGIQFEFGtdtRai4hL+TETDeVrQhAt+g3kg7qBAZfboBGV4zi/dT8jdbNfJezRlcYiPhRsz44C08+MjTmL9wJQYMGo2LLr0AI0cMxqAB/ZGenmFifTm12r9tTYE2A38F8OPTwE0f6rFwyRKMPZi+vmnZcZzXtFJ6QC0J5xOovPEHUa6dM2fOQmVVLYqLi81vI0cOo+6/EKNGjbLSf1s/Mba+TkUB81omXjfpYpkqVxUhvLEUkUgYadmclfu1mpdvL/X4kdoAwhU1PKrhykxD1mEjkEFGEKUC33HSk0qIeclBfPHC9VFTVYWNmzeghCrburoGjBt3CPr26RMX+JihyTuv+/eUEs4edua/Jyp9+W9tCP7U9QnRqTPUmfb8jPAB2eHVaaKFOJjf5EGIUNoIBkNYuGgx5syZa6SSH/zwMoQYHTA1NdWC/5ePsc1hKbB7CvBdS0j8Wo1b9fkmNC5bj4y+PeCl9507PcVMC6TeCTEej6u6EfW1DXCV1iDIgIzV1bXIP2Qo8o8fydkBbQLEfrORu1REYiaaUmwX8eISXZPWfPFKkx+bOU0Av36y4N8MgfbhksPS9+GG/c2quN7GI4BPmv7JBLDdW0DPB5Oj9tGJ+Wr+eBgHJDVV0gTvN7pCmoU9jBbibbOm72iMPbMU6GQUEPBLzSOcbigqRWDlRuT07QVXYRb8aQT+FAZkoYeOOxzVKWcDbmRECPIZdOAIhJDTGEHd7BXw985F9vDezjvM8swrnPjjvOyc2Cvqj5nb823evyTAFw5IKBQ2WAawf3TUXfs7BvteIx8Ex0gkjx4+AFwk4jUSAYvSQ2IelN0Xa9zBTBkJ28Du89pfLAUsBXamgMKuCXpNoB2BsRHFqJ4xSn+KYZL6Zy5HamYmXNnpcKXTFz/NT/Cn6zWFLTeBNuLjG+vnwi0eEYVvTvPBxU8ZfCtnLEWYDMIwEnIUMRNHmcszSXXayIPJEePM6X79EfDL4eOJJ57Ayy+/jAauI1DS9cSxXwXvcpPaHuLiNBo6TF/kqWj8n+i1aFTUuirvRfNfv/AryctYpWqMobaumR/0mYSp7cCf6G7UPiJCAug1NdwLooi7K9/e5N2L4mwWS4EuRwFfI0GbK3ND9K+PCIwJ0Hr5iV0GnzYvXgtvfQheOmDECOgegrXw2nj+xN8+iW3mHWZETnnlmT03eO71cfeulWWo21RGVY9zkzPL5/3y4dY1g4SJ99182e8x0JqfBx98ED/72c9w0UUXYdWqVftd1u5uVEslnMoTSq11y5WVNksptUzwOkM99pLczsQwVVgLEsvHXMqv+41XrLhhkqY2BP8kpYBtlqVAF6BAOIUwT/HeR2hS0AWD5+y332ATgX7lVngy0rn9ItWrkRABmz9ECGQ8FIpZMRtiPCKK3KlzGgg0gZBgJmwPkwmUU/0jv30VKTYhN1GBp/DfJFOX+RO/sH8fffv2hTzUDz30UCxatAjnnXceHnroIRP+pUWj/tIBRV5OmsdoRTKnAqisrTV9VOfl1urmpjY128rQyJg0CXnfXN/e1wPv7/5R6cvvSgzLl+e0OSwFLAU6LAW8cQwycinPBdySYx2lBmXZkkoaawndoTBcQQI+nSyijTuOSGMQOkCPn1hjnAGE5M4pvQcZily5F68zgCj4l/u2VvJynkGwZC0ET9kXzB9zsn+kFLPx+Xz42te+hj/96U+44YYbkMtNYu644w5ceeWVjBH2NvvmdDbxuX81SeLnPxbl4l4FqxbPwa9uuBWr1jMsdbxv+k2an9XLPsUD9z+AsppG9lQMQ8yCtZKe+pesyYJ/so6MbZelQItSQKAkeZyvvACNMOWl/trLTVkq1mxDOBBmZE5K9AT2MA25sToCfz2DslEVFIkf0bogYroW0CfzMB8auaELeYIn5EWgJkTGwe2awpoK8FPIKMmZUwM3GUQC+zVTaIlUWFiIqVOn4rnnnsOxxx6LefPm4Uc/+hGuv/767baARD37wwik+AlR+l844wWce95PccLXT8ehYwaRsZFJshPqlxjmhGO+jvXz38Zfnv4ffOy7E8GArNXwoBbqbKIjLfjZZit8D7TNRUVFKCqinz/T4YdNONDi7P2WAl2KAkbyptoiUFKH0KpS1M7egIoPVqPktWUIv7WEW2sT6jJSEdPOLNo/W1ItPWo0EzCzAAK+QD9aT+k2fkTrGskE+L0hgAjdQP0BF8pfWoDqOZtRu2orIpurEa0NIqj1OzQcu72SNaUxb1lATEtLwxlnnAGpgzZyf+Dp06dzYehs9OvXD33MWgICNWcM+5Y4c6HEv+zjN3Dud67FeVdeiwu/eQLXLngw6/0X8bvf/w29R4xC74I848VUW7YW9973PC66/NtIZT+l/pLyy2V0/vta9761dH9zW3/J/aWcvc9SoA0oILWM0dGb2DnSMTtJ6hvpo02i/t3Rq1Nf75I3CiVx/aFxN9YYQ93aUoRmFqFywXJgaw2iVfVo8DFvj1xkDMtF5qTBqF+1GeH6AGLVXvikqyfox+hO7TKMgOoP6fu56CsUoIslQV/AH6HkL9VQjDOGkBhFWgw9Jo2kDrwSZUvXonRaJVIb3EhNz4S3IAO+QwfAd2Q/ZA8ugCdN8X3YPnZBQCnJPEQ1kUK6q+m67rAK08Nm2YUAXfclgP2ss84ydoCHHnyIQSCfx7U0CF9wwQX43ve+B5+fnktNUuKeJpd2OlUbakrX4Ybf3oSUAUfjuxeehRSvHw212/DYIw/hiX+9haPPPh+HDu/PcQAKCvuhatNqLC+uwBH98rBp5Vw89Mi/sHLTVkz5xlRccO4pSPOyz2bMOCMiQ2zvZMG/vUfA1m8psAcKaDGkQXZihYF64oZODPDTgCu9dEQeN1RBCPhdXGUVo4TfWFqP0pnrEHh2NuqKCcIE8vDAXPiOHorehw+BJ1OMhExDDILgVbexGCEu3gJX8/qosgllUg1E1065ZAuNZeCNkiF4GN4hRN1/tKGRNzXCzTAQMfr6p5HJRCcMhO+QPiiI9UGvE7/C29iOxgYULViHmllr4PvPR4g9FkZZt1yknj4e+ScNQkp3hniQtxDB0C+4N/1spD1CrfNRdcTK9yC1NwVxGasHDRqE2267DWPHjMFdd92Fu+++B8XUGFx77bXIycs14eCb3rM70ovWCz5hWJlF63DVo/egT67CzQdQW1GLNSs2w5M1FJOPGEG1Ppkkx8gl4zjVaBqLZXM+wdW//D1yC9NRvGYjrrj0bHyy8Hb89eYruXW5iwxOLreJAd1dC1r/ugX/1qexrcFSYL8pILdMCd8CIx1GX84TfSpePqGe1zk/oE49sKYSdXPWo3b+RjQs3QRPXibSR3eH//ThyBnVkzGxuHsWyxP/IKTST0WLpJxZQvphw9Dw9kJikgf1BDIP4/J4yDBM5crN8qOS/gn0Qa6ud1P376ZdINIQpqcL9dt+FwoH9uD9LkrwXATGfx5inItrBXodPQwuMh1XbQgVq0sQXlOCwMwlWPP8R8ga1AtpE/oh7bCDkDa4EG66mUZdDuhTo06GphnCviU3AfiCC7+N3n374L777sMz//onSspKcfVVV2PY8GF7VViMPv4LaeSt9hYw3PwEtoH9j6WR3zWikobdqZxVDMvJNUwxQtF/2dLPkN53LEYVpOLNd5fjz4/8HUMG5qGRs6lbr/wB/vHcU5j7vfNwJOMixTi70XSBLGOv2tJamSz4txZlbbmWAi1AAU9c0hdcKzKuEYKJxdxLywBSjPqe2s8rUPX0p2hctInAXIfUo4ag+08mw1OQxm0W0+BnnkbqoUO637RJ99IvhSDtjnAxF//5+uSjoVceYlsqjYonmuqjlCqQciAqJvCnase4etIoHNVB4I/R+8dDrx/P0B7wFTJWF+tI1QpgzkrCivdDqVhhH1RKNNOHnEN6AQf3RiONxygPoG5BEba8OBf+5z9D1mAGjLvwSCePiftPriepej8wUrOA448/HoMHD8Yf/vAHvP7661i3Zi1uuPFGHHnUkYYKmgE0VRs1HS6puIq2bED+QaPQh5vPaDGc6QvdYAeOnYjfXn4OAvLr18SkoRT/e/Y9nH3RT5Hp9mP8+GMwcEAPw1xTUv245NKv46Fpt6Cuos7EPNKcy1HLNa2x7c8t+Lc9zW2NlgJ7TwECX4iHAWiCqFRA0gRF6inpry9FxZOfIvzRCoR7ZsB72ggMOGoY1SiMw8A8VNSwHkri/JpC/3z53Iel5jHgQ5UOpw8ht8RzAXQUmeMHofwtAnEF98nmCt8oJWiu5DJtFfjL5z+FbqBhAmNQvv4EfRcPd0YK0sf20/onkxTfx/jFm29y89QqYM5SqDoS6JGNMGYQy6eB2dc/Fz1OG4PyWetR/u5iVFz7FKpGUnV08ST4xvRCSrrqV3/Yof1IAwYMMG6gigP2yksv45qrr8Z999+P8RPGm/AQuyvSTTVUTlY+Yg3rUclVvllknopKtmjO+yg4aAD6ZGcgBY3cqSyIu675Ecq7DcQPzz+DRu0YBo0cyebGVXJkgtW0k3TL7Y6B/QrZE/Zn/7qyu6bu93Xr7bPfpLM3Wgq0DQUIfdwMXaDJP9Sw1MxchcpH56DoyQ/gy0qB/+ujUXjuBGQNKTRqGjEH8QkBrQmgKDAW6PCQv78kcRUlgPaRPyjAIr/CRynVl5+D6o1b4aZqQ+BujoRvP33/Q7wW4eEhE1AlDbkpKDxmLFIH5htWIyWNVFVe8RTWJ9BX2WJFAnAxoEhcj+UhM1CrVH9632zkHD4AsYO6wVMWQtlzcxBcUmzarbhBhqGZcvbtjyR7rQs47rjj4KdtQV5Ar736KrrTTXTosGG7ZQAuqr+83H/kzX8/g3JuQp+f5sW7b7yJtVwP4QrWIj23FyqLN+GhB+7BxxtctDPchEOGDTCun/RriveZPQ834KE7/oxDTr8E35h8CGkgVZ2YspJDGee87f+2WVTPA+2aiek/+zM+DMBPfvzDAy3O3m8pkFQUUOgAqUZcdCU0njyKDWDCMQQJ4AJRLwOv1WDL/a8iOm8rqkZnYAQ3Qo/lZzDGDj1ZiCPyOhHMNwcqzV9lToKjVqQ2TeGaAIqnzQe2VCE9zJkCgdDIsZwdCLZ8lPql0gGZTb6MnnkZks13qlklmuY0LbiZc6ddzl/uE0MVVRQhlV/eYNRBkcVbkDaiO7r/v1OROZgMhnlUto6gO8z88ekGi4jSyKCSuEFkMzVxBkVbhdYE/N8ttzAkhQ/XXXcdpp4/1TFqq8xd6BAK1WPZ/IV4+PFnaLwtwFlnnIlhQwejpHg9Hn3s37SzRHDSKadi9LhxyMpJJf3pvyQvHn5GyDjUivkfv4x/vL4WN13/U+QwMp6YIdkdK9t3W0aznTqAixb8D4B49lZLgZaiALUqBtCc8vjFgDLVKmQGweogqt9ahqrHZsCbmgLPGcPR85CBlKAJMlTLSNIX8AsQBX4tkaitQPXqYtSt24ZIVR1BlqAqvT/rDOekwcsY/t2G9TV16/quDGR/2uBlHQFhORmfFkuBht/apUWoe34+araWIf+8I5D/zTHwdE9nJkb2pQpM+wjIMCy30aiYJMsgrjabNAtQeumll3DTTTdRZRPAnVwZfPIpJxtmoN+aMgD2iuWpb5qdUE+v300ZBG/Wr+vmq2ZO5ErmKq9FGd7NFfWhonQTnn9xGr551jdQkKf1ACGueeDsKs7BduE1qr5Nk9X5tym5bWWWAs1TQOAtMDFJwM8LMS6aqp69FhXPzkFgQynSThqGbkfLTdOPRoJwIr+Mwolbmy99368GaMnMHNYLOUN6E9QcziLgi1JlI909q6QULmWSozJy/u57PU3vYOw52iZ0xYUgkcnDRVaZo/KRctBX4f10HarfY+TQmeuRedahyDlhMJCqGQnboz2BiaTyyJG30ZfR4vTTTzfqnt/f+nsj/VdXV+Pcb51n1ENN22OoKmDnPwG/MQ6LFvzGmkw9DoDTmM3x8og+pkVe1Fesx3/+9x4mnzIF+XRt1awmUkf7SDpz8CYZ21VOeybNQWyyFLAUaGcKSBcuMdIlH3AChYuBwkqenIttv30Z5eEA+lw3BT2njICXOn4BnZiFQF+HzoUlEihbKgmEJf1LH08B25Qtl0ZH1KXcy1NJsCbapVQdLZAEntQyGXD0sGyFTtDhSfeiYNIQ9L3qJNQU+lFy+8vY/MfpiFYzvISIJVWKaEex39gzdtMWwyDEJHiceuqp+NWvfmn8/v/4xz9i2tvvGHAXwCdmCKYY0VT38MPZXzz+nddYafwQrch6NBNxBVFbsxG3Pfg/nHLGFAwozEVdoBHbtqzDmzM+dBbDkUG4qNJr79Qyo9bevbD1Wwp0cAoIVwUmikpZt6IUq698FjXPz0L6eWNx8I9PhTcv2wFh6rkFwgaTeIc+lYwKwjltkb9S4zheOw5zcYzHDlxI9ROiBdrxHhKDaJEqnb6QDipXPRRz8Zovbs4EPDRu+3HQJROR/qOjUT9/NT6/6t9omLuR7qZiAlpbwJkA27Y3Sa6g3/jG6WZBmMD+5ptvxvx58w3wizk4Uv6XlSR6ODQxMzVyS1ejFw//5VE8+dDdOPLgIzBo8BAMHTgME4/+OmrqUrkFgszgvEectZ2T1fm38wDY6i0FRAGFcXBTz1317gqUPvIhN1RJQfZZ45BK7xcttPJxQiD+IND1UQ+tMAEOSDrgLMgz/EOFtUCSCoXYa5IMmSpbR6IefZqJgGYG5no8M88PNImRScWkEqUiUcU6j1GyjxmDKZ1oNpdj2yufA2uKkPfto1FwzqFskNPOvcF/A+4sV316+umn8Yc770Q29yu++557MCEeO0zyvuoUXCc6n1D3mBYlCMIyNH4m4BtXQc+ZMxN19Q28Rt0V6ePmgjF3aibGjh2LguxM0yfF/DHl8t72Slbn316Ut/V2SQoYbTnRTc6AxDeqdyix0tIpz5HNj85G8O+zgFOGEszGGCOktOoSEhNALKOoYMMBSAcURUjhUEsm1UF8MilRtgBYKfHptMlRiTi/tMxfp14HyBNtMPXKoBuvwt+nG3L+3yEIv5SHrX+ejtrlJej/iykIp5IZscFpcS+gGPVi8lTa1QNI0r0KU3nnTz0fa9auwWOP/gN33H477v/zn9C7t1bisiDD+EgN5WfaqbfOJXN9u/++34cjjp5kru3ujzNXaHLz7jK28nWnHa1ciS3eUsBSwKGAE1ZZmKLFT4zLI+Avp1/7nR+g+sVPkXL+KPQ89xAGEfNSny9jpqXc7iiQHUhFDo3gBZcewUiiK7Dp+heBdTUg/qORoB+RJ5CZHmlXgd0TUmEstCuY9giYO3cu7qH0n9gecnd1d4brFvw7wyjaPnQYCkhi1yIoQZGbKoXwthC23PISquauRsElX0X2qaPh8io+DgHLIH/764aTlbhB0kkLkLOOGoTeP52Cuq2lKPq/V9C4uRF+qtC0h4AMyEpyR91tooSfnp6O//v9rWYx2IsvvIB777mX4Sw4PlwZrb2CO2Oy4N8ZR9X2KakpII8URVUIbmLEy5/9m7F5NiHv+0cib3Qh0iip+ujp4+OnGMUOJUtSd6ldGuejZ5Txvyeupx6Uhl7f/ypCDLew5jt/Qd2acraJ4SSi9LmX4mcPHklS6ejQjmBXXn0VevXqjSe5Qfyrr7yCt7iq91//+pdRARk1ULv0tHUqteDfOnS1pVoKNEsByZ8K0Na4qQ6b73iNwb8a0eO6U5HFuC+aEYQp7Ye1UpWKfm1+vifQaraCLnSR0E4mSXqRk3ojXqTnZ6H7DyfBNbQ7Z1PPo35JCfVrFP1lKN5Lusgoe+UVV3Dvggge/OtfTVTQ9evWo7S0dC9L6DjZLPh3nLGyLe0EFJDCJ7SZwP/r/yJYVY3ul0xCVmGWMegmNmcJS0o1aMXpAaVWm5qngNYFaDGYFnlF6VmjNQle7g8w4JJjgNwsbLn5FYa5rjIeQk0Nx18orQlnKC4uxvDhw3H88cdjxeefY/WqVWior8fq1au/cFtHv2DBv6OPoG1/UlJAsmZYG3mzdVGqJxROmX/QUFKDrf/3MkM2NCKfhkp3v0xK+vQV4e+O94w2ZjFOJrxTMX3a3yskKQnMRskjSYvBlJxdCsQIeFboRsHUw01k0jVXPonQ+hqTuzoWkE+mw1cVIS8B+nESS60znVtAXvrdy/DmW285bJezMRl/161d53j6JO4xtXbsPxb8O/b42dYnKQVMkC+2Tf7q2pDEx88Id9iqvO8D1NVUofAqLlbqVUCffb2CQhQL8i01lJ4wI53mMRLn946Er3sWVwS/huDWamRzrzBFMjURJKgyUmqK5dL7n3/++fjLX/6C0795OlJSUoyuP8j9iT9fvtwEhuOFlmpmu5djwb/dh8A2oFNSQFhOMAnRpVMvGVXI2EwQqmaY4vypRzOEcTpV0c6SIS0k2gmFOiVB2q5TxruTIO3jvsE9LzsGtbW12HznO9yInoNCWmtrSC3d4lY0X2iUGMCECRNw6623muBv+fmM6c/8c+bMQVVVlRnTL9zUQS9Y8O+gA2ebndwUMLBCEVMGSYUS3vrUbNS/swRpp49A5lBu6hFOpbrHcfmUZkfhAWxqGQpotqWAyVpKF+qdjh5nj0dg2TasvvdN7kCm9RX8jeSW7L+rRUXgr5SRkYFzzzsPz/zzn2Y3sKVLl2LxokXmt87yx4J/ZxlJ24+kowA9NilbMg7/rI2o/e8s5J53JAqOHBDX7/tNFEi9gH6KqnsKSJZ0HUv6BinAmiwC4H4EbqQO74n8cw9G5K2FKH91CWND6DfJ/mQAe+C5+n3o0KH464MPYuLEifjb3/5mYi8lfff3soEW/PeSUDabpcC+UMCJTcNNSRh5ctu90+Bj/P2MKYOdrREp6gc9Qeqfuc05XTopqHI7RUcHvS912LzNUyDmpm+/NkknvGtTFanV/JP6IJ2b39T8YwbXV1TwOgPk7dEFiIxbA8OkfYBvZ9iHQCCABfO5yU0nSRb8O8lA2m60HwXkzZNwyqSDD333CeiKeV8TxNobufOW34u8k4bCTf99D/3Rpebx0kvFzfgzCuEgHbV3TytQ269rHbJmNzdSUfgMzbvcDJ0s9U9KxIeUE3sC/Qqw8YZXEKmkLUYrgJlHORPJ3CXM5zi6tHyYY+VipLhefXrjqWeexoZNGxNZO/ynBf8OP4S2A+1NAemJhRdS20t3r1DEYQYhq3phIUKLViDn3K8grSCX0qiP6oimUNPeLe9a9ed5MpF3xhiEuA/v1kemIxKU2sfZbtEMIMfPACIBPx48dCcCaRP40047badrHfmLBf+OPHq27UlCAers2RJJ9JImJS6GNlSg9Ll5yD7zMGQPL0RYq0y1C1aStLgrNqORjDmlfy5yLjwctW+sQM2cdWZW0JQWe9IEicl7uCajsyT7LHaWkbT9aDcKEPMdqZ+6AnmPRIJRbP37+/D2zEbesUOoW3aa5mGgsJg4hE3tQ4G4ETjv0P7wTxiAyidmIlhL3T/5tfT/Zmg4PM0xAAF/4mifxrd8rRb8W56mtsQuRgHHLkgPEoEIEaT4zSVonLMWWSeNgJuRJ12U+OV4GOLbZr162u/hkH1F8zJtfJ9PG0x9RRWK/j3PRPzU2DV1++wKLNqCf/s9i7bmTkIBuRVq5ahScEsN6h9+B76x9O4Z3Z07b3F1L42/0iZ7yBgiNPra1D4U0JI6sWE39fzp3XORefRAhB+ahYrN26iuk7JOOZiI/M5otk8726pWC/5tRWlbT6ekgEDCYDvBIxqOoPZ/i2nUTaNf+RjBPcM6UNIUmsTlSnn4tEeK0OagVuiQd5FC4sgdtUslGdvJgBkv1Wz0knfMKDQM4daZZACReu4DbER/+v+QLnFe3qnJY8G/Uw+v7VxrU0Bg6iWwyj0ktK0ele8vQs45ByMlM6O1q96n8uW9QouDuceRcoWDan3XSVK9aZbmJRlkmPdn+tF36rEIzF2LhiVFZIra78vDw3DGTk8YC/6dfohtB1uXAlIV0F+ceLHtX/O4q4gXOSN7IORLrldr5ZrVCJspihRQTATAeEDM1iVPkpWu2Y5cctV3A/Uju8M7pCe2vLyA6jkxBa0K0BSg8zPG5HpCk+xBsc2xFPgyCphAAZSgg+vKEXltETImD4In3Q9v2OgQvuz2Nvv9tddew1vvTtsezKwrvvhS90j6l1dPyCzg0iKwCPKOH4bw/I2oXFZqZgbc/ddsAt9mg9NOFXXFZ6CdSG2r7YwUkHzoYfyYin/OQiDTjexDBjCEg1hCcr1al1x8MRYsXohtFWUS+k3q/LJtvKPxD0fid4y6Mr7L/Ouj+id9QB58fXNQ8efp3LeX1KGOrCvMipLrCd15rOw3S4GkokACNBONcr7HULe2FDWzViH9hJHwZTAGvIkbk1yLgXIyszFi+AjMnjd3O7B1BaNmYqz0qf5K6lfyyvbLT6P+yfIjfeJgRLjoq2b+ZmK/h+E2kmvmZhrdwn8s+LcwQW1xnZcCxkmTiCFYiFFi1PcYI0QGZq6nDOlF1uSDHHCJ+fnd2TIkeajhxqQJR+DjWTOxrazE6UMX8/YR8Cd2RpPHkyJ6SvqnuI+ssX0R7pOBhjdXAI30/NkLZJRXkGL8T3/3PRRtLjJDnQgGlzzjvvuW7EUXd3+z/cVSoCtRQF4ikhSN8EgPH20KEmwMo3zGSqQdOwwpfj9/j3uUJJngqK0hu/UoxJSJk3HfY49Qp03Xzy7m7bO7Z9Wr2NvpPmQxFEfdgrWo3VK9PaLn7u7RddHv4YcfxlVXXYVp06bt1T17Kq+tf7Pg39YUt/V1WApITSBdgSR+A5w8iWyuBtaXIXN8LwqLNCfyd60jpRkg6ZIk3SnHHkeG1YgZn81mK02Pkq6dbd0gWWhisTDyxw9AOBREZNlWju/eqe1GjhxpdgqbxRmVtnvsSCkJH9GORD7b1q5EAYGlwF2Sf4ySswB+239mwzcwH57cNKNSMOEbaDAMM4RAMiUD8/wjtcTlF12KWQT/mrq6ZGpiu7XFjCfHK0zumDG2HyreWuzo9vaiRUceeSS8Pi/WrlmL4uJic0dHUf1Y8N+LAbZZLAUcCigwW4IWlPKrI6h/cz68Y7oj1ZdiVEJRbc5C2T/Z4vPrRU94sAzu3Q9ZmVlYuGJ5ojNd+lOhOVxk2PqXMroHgos2IVK2d1J8t27dMHnSZGzcuHE7+HcUYlrw7ygjZdvZ7hQQ7rsJFM4/F7Z+uARutx8pw3o4un6+TQJYrZz1mNDObd/kBMAnQjckeFXiU+6OMkcfd+yxeOG1l1FZX/uFRu67OsgpPRHfSN90KJBCSGqU+CRIvzs5v1Blu17Qbmp+Gu5FG29/un1mZ2DDq58ZRr+jvc7Zju/OLEoNP/PMM1HDTeIXxff47Si2FAv+7frY2co7EgWc8AhaKkRJkUt6ox+tgqtvPtJ75RLwBR4MDsCdo9xUCSlyZHuk7eBvoJdQFW+HQMt4t7BZQRqrB/Xvjwljx+Ifzz1tjL/6XS1uCm57235HctaWibqbtGFBuhYNN+DRJ/6GeaU0oJpfnNL3p469bcv+5HNT6hfDjrrDSM3JgGdwN4RfXY5oUIu92FoezdnvEyB/zORJyMzMxOxZn5rqrdpnf0bB3mMpkMQUYHRmJg+dON2oK6lCYH0FvPQPdzNks174ZHjp/TRCC1xDslcS0FycgQi4tJJVOu1qVyM+L16PZ//7HE465qvYvGYdlq9bzR7F1ULsoxZA7UuSykRg71PIZAZPkwTtIgPcvGkN/vXCM7jz4X8xnLXLbFSvFbZs1L4U3+p5xbPENA2dSAjvmAGIlZahas1WhyM2YYnNUSYrKwujRo3EnDlzkuIZ2FuCWcl/byll81kKELiEi8LVKHfqClcHUHhoH0MXSYFiAu2djGJF+EpAU6yaED1QZi2ci2fefBG//P1NOPmb38BNN9+M0aNGI5/66gvOPR/vffSh8VQxswZxjn1MO24Ro/HwoPRP5dLceR9i5eYSfPDi3zGXm6ZrPwO1S0cyJanIJPnHXFzZS6aVO6o3P0MIMtib2ywOcNpsmq2ZwC5JTH8sZ1Hy+V+yZMkuvybv1/Z/WpOXNrZllgI7UUAhGyThSn0SWVMGFKQDeanb8ySD5K/FS2JExuZAUJLX0WvT3sLNf/oj3po+DUP6D8Stv7kBY0eMNBA9cthIBBoasGrDGiPfSrJNqI62d2wvThwbg4CR6h+2wRsN4pOFKzFh2Ag01G3FK2++HY8rRAbB9iVVUntIK8OUxDgzfHAN647Y59sQ465sYmlmxsJGa/x3TaL3iBHcuIfM/6OPPtr156T9bsE/aYfGNiwZKaAXRnBQsXwLfMMLCHLJ1kqil7aLJCDVU/+ydM0KrF+9FunuVAwbMAg3/+q3GNJvECVa9cSFFJ8PJ046Fn97+nHuS+DsPLDPPRIgCj/JHBUR08XNUratm4kN9Vn47U8uJcGieO+DN1BUUcE4+n7z+z7X0Yo3JIZQ6iolH9vvO2II6jZUIlQTMNCv6+yiYZA6T6SE3r9Pn77IycnBp59+aphv4vdk/myfnSWSmSK2bZYCu6GAVAICiCiBM7y6FHlfG+7MAoQKbZASMqeqk3QuzBWE67oOA+e8HiJ4LV62DDPmzkFVZSVuvO7XmL9kAYYeNBgDevVn5rh9ggxC9x08cjR69OyJF195GWd//ZtU3DjX+dNeJamaJM17iKLaxdgdCeC2P96NE875NQ6dOBTfGj0Mzy2eh/c+X49LjsxnmSpfqiH1RCoXtoI01bf2Sqo73hrzmTu4B0peWY5YTQOQn8Jf1UbmYD93TZrxFRQUQG6fCxcuRCAQQGrqjhnhrvmT5bueF5ssBSwF9oICmv7r5XfXcbenylp48zL3S0WyF1U1m6Up7GjGoe/aR0Bx6QVOUap4aoP1ePDxv+O1t9/AkeMn4OrLf4pB/frjrFO+gXEjRscBjtnjIGZsFbz6w+98F/MWL8L6ok37LLk6IE66kDlGGBRt/fJZeGVDBk6bNJb7F2fjp1f8GJ5ACZ7+zwto4MrZKHXrTuuFpw6jcTWjTmGmNkkJuoqKrhgN+rzgzyZ4C+8rAuyXNnghwfk3of5p2jDRMD+/G3Jzcw3wb91KQ3EHSBb8O8Ag2SYmBwUkm+r1L1m8HkijXjgzbXt8/LZqoYBKR0IvL/uDJPW6YCOmz/sU3/3+99EjvwC/uPpafGXUWKR49zy510xG4Sq6ZWThhElfxfuffIyQAbq975GMoion7KaETKn/v29Px4U/+AEKGOtIdpIh44/FMaMGY8ab/8HMtdtoiFZ+rQIg/PDTY1RQmgEIYJMkMd6/qzAD5SuLdhL4RfvmkoA/OzsbkUgE69atay5L0l2z4J90Q2IblLwUEGABVfM2wc9wDl4ZBiltt2Yipm5PiZp0LQH+wWgYH8yZhYcefxSfz1uEP997P87+5lm0RQhUHcYgKT+hm95eWPxEZRptBlUXXxk7zqxSLd6275KrU0Yjyos34dPlRTh6cCaWrlyGeasX4fMNW+hdNAZ+Vx3uefAh1KgD2k+Xoa+N3K+bdRi2Fm9YO3+4CP7pPXNQK6MvmyaTb5ztNtsyN2c8AwYMMOCvMA/JYPxvtqFNLu5ZLGiS0Z5aClgKUBokkPqXbEM0KwVubtnY6gt5hTlxDmAAhfUL+OVdU1pbg7/+gxE6w2FcfN5U9O3eE26/z0jhum17alLG9mvxk3jRpopu2Tk4cfJxRLrE1V1zN/9duaMEc6/Li2WLZ2M51w7ccecd8NNdUsbxMCX6SDXXRNC4/NnM1zBzzcWYPLwnGRQNzERWuVgKWNtR8/OFjgn83flk8Au3sV2EfrZRTMBRUn0hu7nQt29fA/7btvEejpPGa3dMt/kS2vaqBf+2pbetrQNTwAAqX2j36m1wTxpowMAxju4bWO4TCZoWLeAnTlZUV2HuooV4/Ikn8J1vTcXJjNSpFPYQQOOak51ua/pll8rFSIzqR58E/SPGHuIsENsHDYyKd2mBF1U+b348A7f8/m58ffxYtsfNhV1RBLxcGVFbih/S8+elOUvwzrvvYvzQS5EbbSQ4ym4hPyGHoQlekyW5c6j331pN8BeTchsX1j3F+uxJo3mUnk0Cf30mw7qPPdHSqn32RB37m6VAEwrI6BepDaG+vBYu+vhL42OW/zfJs7+n8n4xmo8mBRjMNliosxgaIyG889F0PPLEYyjauAn33fEHnPTV43gfpUw2Rt42Ceh07tg+aWhS6s6nO0nbQmImhrpRa8x5Qr0kBqG0q5+78jnB7GJYt+R9zC9xY9zwQbym4HbOPT46/vvSc3HpOWex7CCm0e2ztKKGTMcrxyNxDlNbou3OXe3/153pRzDQiHANDfxsjtm+Z9dBijdTdOjdp4+R9GtratHIsNnJnqzkn+wjZNuXNBQQ8AXK6wiwlP+yU4yaIsprkv4PNBkvEiKMwFb44uUfqXa0WKuRJtmNlSW4+/77UJCTZ0IyF+TmU7JsIofGwTnRjr1tUSJfAtyNSomFiKEIu1W/zhW+WnkS+RP1aFGzVCKecAV+c/d9GH3099EvO5MqfeZk8yTT+6jeaeROOJNOOAmDCu7B8sVz8Nb8Oeh/wgmcGchXiYyCqpUdS6kSpbfvZzTVjwgRUpu75GQxZLdM49yl7QtEYDOl3ulGjx+perRoLkxVnFIyq34s+Jshsn8sBb6cApr615cxSBkBLyUn04C00VvsArxfXlLzOQSsAlgVZyRqwuEmbrk4d9ECTHvvPVx8zvkYP2ackap3BeHmS9z/q2ZGwErMrEKf8aIS2yCa78pEsKutrsR/n3sMHyxdi5OGrMDyjVswtlceGl2KH8pZCYGxoboO69etRVpaBtKr6vGXu27DkO7dcNSgg5CZmsKgcNSxJyrZ/2a36J2+zBR4PR7UFpcjl5FbtYRNjHl3tJfHj5hALSN8SvJXzB+r82/RIbGFWQq0HwWCtQ1GInc2am+5dgj3dJjNYAgvjTSWvvbu21iwcBG+Mnocbrz2l8jLymYGgin/JUC45VqwS0lsjNQ2sjG4IprdxG0KvC7wMxItPwVuAapGsgv74e7f3kVwrEfxtmKMo/5bfv9aSaxZQ319PTZsKsGPf3oNb6ZRGkFK1BtRxzUIOSniLs4MY3fAukvr2uSrJ8UHD+0VIc72nLR78Bc9BPbqRx03yQmFuA8wk5X8HcrZv5YCHZwCBN66kAFff5pWfe5eCtzXjkrF46IOJUD99wa6S/76N7/C4WaR1k+Ql55lQCRIEJXk6adKxQDwvlayD/kVnlnqrGhFHaoDtajxMioow5rmZ+dyiUMqQV1qKYFbFAWFPXDG1892rplVAzGGlkhFCg3ATjA3N7p3745TT/mmoVhcocTzMBkDwTXqZ0iFAO807G8fWtm6WX1U+wj8o5VBMjmnbRyCZlNCwu/eo4dR+UTC7A3HNJmTVfsk8+jYtiUVBaQDd9cFjV4+SiCUNKyQyUSGA24nI8dzde1GzJg9C4uXLMXNv/0dRg0aamYZMirrnxZHiUkYVcwB17j7AgRa3mAYtdyIZcWGFbjxj7dhbWkR+x2jO2kvXPOjK3DCkZPjDEjRfBx1VZAEEVPwcUP0qLuWIYa8/O4wSN3rLAaTxxL7wOtRrvbVjmdRzgLCVPscOBV336f9+UXqPcMEyfCVtBhOayd211DRLS0tzah8InJjbYHnQvW2VrLg31qUteV2OgoIgLVilSK68fE3q1QTSvpmeivjaQL8hBmS2vUpIKT900jO8nOpCzXixVdfwcqVK/HViZNw+hWnIJvbLKo+5VcS4Bvh0/m6z39Vd+L+piAbZAO1IEzqJlMXJdZIfSOCfhdq6Ir5y3tuw4ayIvbbCXCwiud/uPcujP3LSHTvVmjKNIDIFnnNjMSR61PCYo0OTupOh1U6fZfRRKt5NX8RRY0h1bBSc0vS/HH7uTEPJX/RTn++DMsF9spqQF/cLcnT7mYxSd5s2zxLgbangKBqe5Kbi4MK2y/teiLgV5Lji04Fvh6Cgi9MyKe6RDtqrdq8Ad/+3iVoYDCwX177C0w++hjkMNSCbpBEHS/CMBGVJSawPykB/KYMlRM//ARilWhUPHUB1NfVI5aZitTuuVi7bTM2bymO51S0S4aBaHChrLyMq4pnmuu6VyGcVZ5DH14xTRS07KDYzjYKJ7xDgj7GLYi5ky6J1k3obbpl/uy+pYauHQD41QMr+e9+HO0vlgI7USAhKQm0HEnZkXIT13fKzC/CCQcUd3wRLiiw2fK1qzH9ow9RWkIXzlvvxMC+/U1+4x0TL2gHOMYvHMCH2mKYCU/EsxJluynpa4VwfWMIrhQv0gq6wUtPJl+qD7JrSKmTuE8arjrOCNzUf6Rzw3qVIVdQMwNSBZ0sGRppADtpsuDfSQfWdqt1KCDgFM5JkpZaZ09Gve1qHwKkJHZ5vVTSDfDxp59EybYSxuA5A2O42UmGn8ZjlqeyhTWmjhYGHbVFSe0W49JWjWHu8lVHTx0fA7D587Lgzk2Hj8HqNAuQn/qooSPQr1dvrNtaZIyxMkir0wV5eTjisCNMnyT1d9okTq3DDHi8lxqXOC2b9lvPQULH7zwTTqam15vmT4bzzjx0yUBf24ZORQFqr6UGIAAEGxSagJrsJmqBpl0VRhjvFQKmgD8QDmLN+nW4+tprMGTgINx24004nKEU0gj8JixzkzexqYqmaZkHcm4wi38UwkEunA1U7zQQ+FOz0+HvmQt/327cvFyLs7iojCqoKFVA6Qxl/PgDj6BndiHSaLxND3vRIy0Xd/zkF+iXkm3KElOREbozpjBnQ2KCCVDfUx+b5tG5QN9hAnu6q31/s5J/+9Lf1t7BKBBLpVwsrGPsFjEByXfNQZ+uewkAQVcICz5fivc/eB8xqlhu+vVvqeIZQJClOkU3Cjz5oST1is51NFcmL+93kgpDdUYIaAF6orip1snMzoOH8Wu8KX52hwHY6gn6QQZjo6cPuRWPILI9abh86sVYxr1pBxb2xFGHHIa+I4Yg4NcsQCof6fylw9/vpiXvjaIZ/0XY173pnsBePv6Zhd2Ni2hThpCMnbTgn4yjYtuUlBSIUFUSTaNUR0NtlOt+olkKSewAg7EBUOLToiijA6dBt6S2Eg888AB8jGapMMsjhgzdAZIGWNjNZlClmUtfoIdUQ0pNZwm6FGLbFBpCbTAzD7ZJwOxuoIqHrpsx6fK7ZSMlN4N6fambqPMnQ4g1hg3oR/kZoTooGiKDaCAjaAhg3aaN+OaJp2L4mNFUETGMtQK1NZH2OyXwk5YR0oLkQSRHnktizU2mZ/zWXCorK0Pf3n3g4crgZE8W/JN9hGz7koYCkuTSuHtXkMAX4PZ+vl7Obk+8TH2+i66O1KUTLCoCdZi3dBGeeeJxXHjhhTj68KPoWUFTbhzw9wbcv6zTTUE/kVfleum9I1WMdPEenrhCYQTr6UfPaG2p1OsrLIWXcWrAiJuRMP3XCfDS/UeCZBVG4g8aqT/KFaqaqVQ21KK6vg7DRo409gCzrkEVtkQnEg1Pyk/O2qgWA2mSQc8nR3e/54ZWcsvMGGeEWumbkkLGmuTJgn+SD5BtXvJQwE2UTy3IRh3BP8zFXkb4lgTM6wLFumgIMz+bg48//piG0l648TfXo3cPhjmQDzvzKX9bYKaRxCm5Rynty83UxS0J0yjpp2akwsVZSEQqK/ryh6nicTcwn1H1CPTJuRol9YdMXHrF3/9o6QIMHjyYtoEMAltbtD5ZxpszvEYu1GLgucw+3dgox4ffGfTm2yiVj3IJ+H2e5IfW5G9h83S2Vy0F2pwC1KggPT8LW+jrmFpBf3hJ1myFVuBWNjbgxt/fgoN69mEAtm+hFzf28NOl00F7BzT1tzUYgKRSxY430ikBOkZpPkRp3p3BwGTcccwn1026bcao83ekfLp1BqTbZz4BHNUbHn4PE/iDkbDZAD6LHj1uun4++85ruOma66j0kIcQ+6oOdJHkrmX4CRrqM3swYJtR+SRG0CGA6K1Dqh5t3r5lyxbzg7Zz1AbuyR7T34J/F3mQbTdbgAKU8L1p3L2rezY8ZfXUrzPcb0013uO+t2+/+SZ307oARx4pF0iCPFVATVPiW+Kz6W8Hci4sNoZFglCUKp4wJXrFo0npngNXXjo86TToEriiNN6GqcKIEfBjRsIn+BPsI1L1mOv8nXYKD0Erm+ohBZBbu6WIAdlqMbT/ADNzMZ5OB9LYDnavu5q0FAPN4F7EhulxZsQ9CAwHj9NdtF+7di3uvPNOjOM2mAL8jIwMVFVVobS0FMNHjkjaTV0s+HewB9I2t/0oQDlP2hu4h/dFzZYSvPn2G1iyeCFGDRmB22+6BbncBlEZYlzBK5/4XYHeGGl50eBIS3VDoE/dfJBA7uFMw0vA91JFI72+mEBMOoBN6skAAEAASURBVP9gA9U7lN15HhH4xw28kvQ9BP4A9wF2E/RTuLLXQ88fJbmnfjxzhgkj7eOMJ8zvJs6N6URLNT6JyyFdQxW18Pbivgky8FN1p/FsLrbPuHHjcPnll+PjDz8yht4FCxbgiiuuwKhRo/DbG65P2k5a8E/aobENSwYKGFUKgU+fIbpteuDH1rF+3P+HP2NS9nG46vv/D9kZNKAyj+O7SeagxVDNpOaMtIlsAhbhqvT1Yg76rqQ4QPqm0MhiLEa9Q9WOtj6UWilUU0/9fBQ+6vXdORnwdKPfvpcATlUOaundQ3CPUgUUJOi7JOHThdMl8Jden99riOw5BXnw0osnLt6aegPhAJZ8vhw3MOQEazXqHi0M64wpSjWeJ+ox9hGxbHlugTO3SEUD6g7KoLsut6M0w8BZH/MaG04TQkjHP3zYcMz85BMzC1u0eBEGDByIfzz+mPneJGtSnVrwT6rhsI1JRgoI+JVKuEnJm6+/gw/emIbL+k3CEaeeg4zMbEqFBNoWSLu6TKpWuWzqnxwNtVWjWVBF8PcQvOsbA5TYaVzMyeZBaT+du4vxNwVmk69+lOqdGIFf6h43dfoCe6l9gvTyUXkpWencGSzdgL7Twx2dKCouRk/6q/u9PrMGQCypKVPakbMTnCnQHLuhHmp2p9TIMa/dUoXCU0eZFc/GVcuMxRcZu1Q/hxxyCD6dNcsICYrs+fOf/zzpPX4s+Juhtn8sBXZPAe3K9Nhjj2HDxg2YcMh4/Okff0Xp1KeBGkrQhdQDt0ASsCbk6gQQJ8BWRlYBk4LCRQyIs14uPPLS+KywDN70NKomyCAI7i5K9lLtyHdf32NU7chrRaqeMEE/xAVefub30fMHlPYTdTXtgurdVFSEfvRXF0OKxhdxmXY0d0PTmzvgucPWSGPS1+xRTJCXR5SrrA7ZAws17yGdmEvjoNmPCBRPCcFg1Ci6wtI7Ss/KkUcciaOOOsrkSMwcE/mT6dOCfzKNhm1Lu1FAhjpjOGULEi9swph3zTXX4JRTTsGNv7sBPkrCLq782VxAwOUmHxE33SUZ+qClUgJbVbcBFn6a8M/U69fVcmUZgdiflcHwmulIz3W2CTRSPgFfq3e1SMt81zldPd10+dSirVpu/u5h27ML8gn6jLdPANsVzBP9lvfSqnVrMH70wQbnNEuQKkQG3ya411Jdbv9ySHTRfUff6K7JTdtFBxQy5AV/M+Oy/WRHkxPPTGFhITIzubUn7znvW99CHr2lkj213FOb7D217bMU2AsKGNAlI1Bs/enTp2PJUm6scvPNGDt2rJn5CwakA8aQPNQuL0He+B57UereZTEAk8hKEJEk6iHoawFWI10O3TTIGvUOXTf9fi9cYQIygV1SfYTGXG0d6G5wwN8YdckQGijty/ickpuNNNomZMhN1LOrmikBZJodrNuwHuec8g2T1yg6eF9nTQlMT2w4w80nUTFvA9AnB7HsFMr9zjpu0S1Bo11pkZaWbtw75elzzDETd/05Kb9b8E/KYbGNamsKJF5qAeif7rvfuOpNnjwZl1x8CYGWBlS++YphI6OndtTKH90Htf9aTH3wIfwpAacH1mppFJQShuGQpHe2h9MN+LnK1Ef9vFfbR5IpyE3Tkfip5qGqR7p8KD/P5b8fYSgHuW76udrU+Pt7qbyINzMB40alk6iT9epnzQaWLV+O7JwcZ0MZft+VSaiNnSkZTb9hbmK4/Ebm3jB/NTKH9EN6Fv31Bf6c/mgHMjHC5uY/ekak9pk6dSrSyQA6QjJMvSM01LbRUqClKaApulGtsGCpfT777DNMmTIFKWmpuOmWm3H8iSfAr/g3BH0dWuFqVCP093MNLECksgGoakCAHjPSCTcqXzwlgDTxPfHZ9HoitwA3TGCRvtlDLxMvVTcN5VUMv0BQ75aGlH55SONCIx919VyFhSgNuiEGYQvVs/7qBnjo8cONdrnqmNcaGK2Trp1hLtDK6tMDfjEMuXwKsnZR26herQBWSnwKCJ947TmcOGGimTGIEanNOjo6E1DIC/VZR9Ok0BduXnQWsdF2QtpGllbCdXA3hBmjh9sXG+D3yOOKdGwu+bnZe1p6Bi767kUO845RJciMYsCxkDaqFA1JRTIR7obcXBFtfs1K/m1OclthMlFAYD579mzMmDEDJdxY5amnnkKfPn0ckN9F1UHh2YAgkQCpfRjvpXsKSmesR/eTh/EHxs7hOx3g3r4GH4SWzSRBR0Ky356FJ35JnPLJ5xEmI/IqDg/99X3013dTxRPl2oEIg6yZIGxkAArDIDfORkr50vObxVtkFlGfB+ncZN3HxV0CuUQdzUOW09Ttv7G/ldWVWL18BcZePbaZ1nfsSx4ZL5pJPrMVGY28WptBYtQtLGIAPIbyGNbPgXozYNup1EwJXPlN4D///Kn0juJKahZCVmLuNTukUThQhFenBLGAeGC8XZ6vZgtuxYsW/FuRuLbo5KaAVDx33XUXqqurce6552Ikg5fJTc9I93wxE5+JXki+l4QoUE1njB8/9f7hjzcgctIwAxphY5nVYigFWONdCeRNFGA+edGI086kW6faxDzEIGJm0+9UP+PwsGwCv5vSZFShn6nOCXGFrlmJG1fxOIZdev2ICRD0tdo4LYcqnjQapCmtao+AREowm8T3pp/bf2N+NXfugvk46avHd4iolE37sTfnmrkI3NXPpkmwHKX0L96QQjtK1aLNcPfNpadPdzPpc26I39iErk3LyKGa7BunncbZlTOuqsdN24kYiotrCNya2bFiFxeMebhPwnYJoGkhbXzutLSNK7XVWQq0JQUiDM6lJDCXeqe+vt4EX5s0aRL69++PW2+9FYceeqgBfuVL6P8Tn7qmlJDdBP5R6ggikwYhUlSFxqJqR6rjdUmXAhkBunBCdTZNzlVNIcRI+I2Sfn1VrQFrH0MtZ/QqYPA4xtnnStsImVOY0n6otgHRWjIHqnhidQ2I1PIaVTxhbiijGD4eLjLK7VUIUD9N1DbVCdTVDnM0bcAu52qjQE/5I5y9zF04H6efKhDTL50rJYDfzIjYPXnzaHzCmtJxtDQeDeX1CKwvQ/i00QyCR9A2s4W4lp/37DyaO+iTTpVcXr5iAElE4BELo2LbBqxZtwE1dP+MsnLZDkwJLimB2p++VvLfMX72rJNSIBH0TC/6u+++i1lcjCPj3BtvvIHcXL6wewl0ZgpPnPBKj0vTX88jhmBNznsILtwCHyVFH6/LKKyJvXIYqXqXsvXKC1DkndPIQ7MEfz69dxRqOTOdsfJpmJWun9K+UeXIdZOHibZJf30Zc8M05oqhebkLWApDTHtoBA6yMpWbgJRdP3c3tMonUFRbyyrKjTtoN6qNOmMScOtQn9VfjadcWLVC2tlgPorAphr66tej/8njjHF3O0F1L2/cvbRsKGlq0JDHGDLj4q99Da8uWInr7nsSv//xOeZ+ZmAb6Kmlk3ZOFvzbeQBs9W1DAQXZUvAtMYAf//jH6Nev3/YwDLq2twzAvLQuAnLMh9RMbmJ+7HA0rtiC9K8OQjSdAdUCkiY106AqJ8XR+wpwtifOPAKU2rVy15fuZ3x9Bl/LY1gGqXjIDIxOXyoeqXcI+orCKd1+jHr+CFU8WqjldnuQRilTtgB+YX00WLK8BPxsr4snElwNaO3UiB05dFmHQFA2j5y8HMe7aUeWTnUmGgn4dWjzem184yVQ15ORejiudcuL4RrdD5kMga28Ys6aSym/6Ehi84tOdk68ysQxiI+D8vTuxhmcNwu98xkOmwHhzP2uRtKa4/bFInYusA2+WfBvAyLbKtqGAgJxJQF5YtGWNtiYP3++0e1rsdbxxx+/340JEEmdLTr8JrZOChd39fr2eBT9+j/IWbwNW6LVBHGvieWujUCilbUE0+5Ip+44mk13Ufp51NMbx6vVtYqvTyNhlDF5KHqaPXMF8OAKXsXlESMIUcrXDECxeEzETjIVH0MyeDlLiCsiTF8S507vd+6eMEbAtbvkzGFk7Ixh6YZVGNqzP+lH+XYP9+yurGS5HmLz/fSa0poGqXg0Iwp7SCWS18t9GAIlFajZWkK32VREONMKBRqQWkL1GUe3bv06FFw02XDNIOnt4kzOzOXo6bODzloJ4MwBRCbROEI1jyrzko7OY5iCv7w9A/dTxeMNUtKnPpBUZlhthuAwuiTd374cwIJ/sjyxth0HTAGBvhhAggm8/vrr+ITBtnpxY5XHH3/cxFw/kEpS9K6qfL7gkhhjNA5G1pah55lHIETpLje3EF7ukMUYCoyNzxg61bWoL6+lz/hy+CjZexgqIHNAT3i5Ojcq/3GCrLZKlG4/ZsI2aEGXA/j6LgOvdttq5JHK1aNpjN3joz+5dPMthRtmxkMEE/gvmDcfE799KWGtfUHpQMZI9/pJHqnfBPwpBHwZv9O4aU31hi1o0GSJzDOnz1Bj1NZuZWHOtCLdaT/hWGW4DwJK61C7bhvSDyo0qiGz+Ivliipa5axZlpM0Y3Tg30tVjurjCPL5EAU5eyPD8PNi2MdxpvGXNZsyjDdQ/L54Qe3yYcG/XchuK20NCiRAv5hBya666iqzA5U+tfR+b9U6e2qXeeXNC05VAN/lbR/Mh5s7NvmG9oCLKiBfGuO+U+J0MaSCl/p5LwE/yPg58hUPF1ei6tPPkdItH15GivRRrRNm5Myg0e0zqiSZgLNQi1K/3DcJ+GEyBTdtE7ndCxCj8TFKxhIi85HGWJCj40CTUWewkI1bio3XUM9evfc4UzjQ+tri/gSuGr99Vqix2rJiDVK753EznhwT8po+mQRxzns4w/IEUxFMoTGdgU1TFL65qAIVaz5B7MzDkT2EO7FxzBVUjzwlLu/zhPmUONrmn87JP4X3lO7rUMdZhE8XxCyo6uOmmQydTXWfJ9Mx7iujeaB0Z/skC/7tQ3db6wFQQCCfkPJVTOK8iMHIZs6ciZdffhm/+c1vnJAMfPlaAvhVj4J9CQQk+VXNXmli4fuo0vHmMHY+gd9NgNYy2liIL72nkSDKqX6YIRm06pZHajCKsvfnIT+X7px0KXWHGtFIlY+bv4UE/grlIM8QAlKY2OBXtE76+SdAXt4oki4lyQrgWgI75PEi1cbLr72KiUceTRMCGYu8kEi3jpoSgrmPoE8/KYTWFXPtA3cz65EHfyZdaDmDAtdjyFYSpY+/t47jyh3MoqFUhHM10yIzLoqg7PXPkDL1q/DH4/sYuCfdYwR+sQLnLz36+YPiPQUaqjDrkzfw8FMzcd0vrsaYUX34rDBUNJlAlIP26jNP4tVZG/CbG3+FgVyx7fhltR+V+YjZZCnQ8SiQkPLV8jC9Y55//nnce++9Rtd/zz33QBtsyMunJUHMTb2xTLh1a0sRWFMEP10y3dzlyU/pXqGPvZTw3VxN6yaw6NxHw6zH60WEhl+P8tAlM1bTiIbZa8wK3QBX6rq5MjdW46zWbaQ9IMAYPh56/WQW5hngl8FRgK+kDyNMxs917UATWRXq6Po6f+ECHHPEUY7UTwbQGZIYZKSkEsHaem5eT4mfDBrciS2WQthjyAwFuvO7qK5hhFTN4FLcnA0olAZnW65UH3xU/9TMW0v6C/Edw68GIUEdigFGEHDRUFxfXYQ7br0B3/vVM7j6uisxjhv+iJlXcxV2iAzAxVnbNy+4BL41M/Dz396OKs742jtZ8G/vEbD17zMFBOg6xAAk7Sskw+rVq3HjjTeaxVpacKPfZfRtyiT2uaJdblBZMb6z1e8uhIsLqmICCEmAZAqSNhX6WEAhyVBHiN+1CUga0dvNlz8s7x/eU79gDTzVQTIASvk1DWhgXP4gJX6peLLor6/tFxWeQSCj9QJSX/D/9hAMu1upuktz9+qrGKRoN2ToUGTSAK1kolnu1d3JmUm0UtLsKbx8ExfMZSLKdRMaAy/tLIrPJO8m/QvLuC0aU3qXUdjH1dtSh8TIJ8K8p2raHKqNnHGV1p7DzR95Dz125Nmjcmilx//+9xzu/NtbeO2/j2LcqIHMFsM///JrDBlxFOYtX8f7qPrxZuDErx2KuR9Mw+drNvO+9k0W/NuX/h2+dnm0x98Ig1B6FRKH6Zy+mCvKFUEo0iibKQ96uHDaTZspDZiMpcKQw7FQA8pLSlFLdUiUL2SE8VG0elVVqBgZ03RzlMYzAfG8efNw++234+9//7vZPEMhdZUEaInP/ZH8aWal6kOvb7zlaiPPpW83i67qqNGlZC/A1/aGLuVlm1w09Lqo2nFT7WO2cqTkF1Y/VBL76lE+SZEM1VCyeDVcNUETnkF64zTOIlIKuA0k2y5wEhiZ+sXkWLcYgaR+pcRMwPl2YH/V14XLluK4iccS9JxNTRwH1QMrtz3vbiShZPSV0TzI8fC4KcmTGUsYMAIB/fo1BnwYqZYjN6edJsTxcfOa/unZMi6bvMcf9mP9jGUsTCMQHwB+ahz1/OopCdeW44G7HsLFP/0JBvfP5+yQZaMRjz/0Khr4XGeQmyiyqp7d7t0LUVtbg9LyctZfj9eefxqnTTkG+Xk98Ytb7sSq4q1qjlG9Oe9V61HS6vxbj7ZdomSZu7ZPhHnqQJW6ruuJ5Jy7OP3VA2dAnKAm3bkJSxDxYfOKBfgFV9qWbK1Btz6DcRtVN/3oBhnyhODjtJq548vipWl1wH3MmDHGhVMRFVtSwqfixuj2hdOJXkj6VmiHbUUlSKWKQMzJR6NuCnfLirCNkh5d9CU0TCPur89APcQAGm/lp0/GQKMBQzQLA0g1An+I4GJCNGvvXNYkyGjr1NDQgIqqCgwdeJBhKuqzcE6fHTUpOJ7CKtSUVVL9xieOoBsVYybYax2FmLWZOYoZ8Jq2tjSL6uLGdzEGY7gnIcRofY165pyZAm8kWUQcPoMkkp7FT194HCtqXLj15BP4M8vitKGxcj1mr9yMQ085i37+jO3P2zRLqCirofrPjQyGgH7rn4/h/Q0BXHDp9/Gtb0dx183XY922CP553y9ZvgQdDUTrjYIF/9ajbdcomQ+ontFEck714H7x0TJucURRhrmiq6RzRxolpNqSYnz7e1cga8hI9Mt34+mnHsbK1evx9nsvIt0lWHSkJt2hlbX6q5dXq3QTUv7+SPhOC7741xWkRzan/cYgx3ZSE2Ck7hjVBm6CSCNVBT764mtf3GgjdfsCBHZIxmABPCjxm7DKdZzBUJ2j3bcSDECgoj6Eq8jkqNeP0D4QEohI3GvNN/2L3TRXKqoqSUc/MlPSjFrJp/62S0t208D9uOzjA6lYbS6umzDSOV05XQyF4dYmNhxMl6Kwasw4VmZTey6ei9bT3ZP5ohorrbPg2Lo0E6AqqHr+MvQ+YdSO4eG9Yo6Om2cIL770MXr27Ynu/XpwJksvnyif6c2bUE8HgNNPP5MG/hzG8VRwt1K89NJsFPTsjyE9Y7j+yUo8eNcvkaahZ/IGtuKK3z2Nsnt+hWzajhTsz3mfnN9b+u8X39CWrsGW16kpICjTf/OUUrKRLOQiYDuio/Poynsk/rbwZaQenCqSTWuXY8ac+eh70BhUl63AT264FedOOQr1gVpkR+vw8Osz8OiTL+GKC880fMS8qyzdbCIefyMSwN/SBI5RUS8Vi7pljH0U/6SeCq8rQ2zBRvjq6IYpQKExL418LpJBhqb4MHHwjxFUzK5aXOgV4ybqDrA4/vuSNMPsfySVhmDjceKwM3mAt7XkL4a5iouaCvPzkZbCBU/xPrcm4LT0WDVXntmOUeo2PY/0okI9oVdhmjU+ZAgKoSE1jGZpipYqqT+qiKlcABYhE3AYAAeWjD7MWZwvt8B5vnepjMVrUoGybVuQk9mboZXoRcQqInz+yyprMGjssZh61gm8FuCdXsyY9i5emrUcv77rERRkFeL6ay9DKrmI1g7ozRnY7yC6JTOYHFWdHj1PJrXeaCRqiFdkPywF9p0C0qe6tMKRD7AAjK/XzoXoq3TizCOt8rJ5r+HMc76Dy75zMbe8Ox+PvzAdXzl4HG/0cNVrDn528++QRye9Zx97Alurqh0AZqlmcY0pepfyd67twL8JNBJVsEOe2ijKH5+Oohc/RvXWUup4A/BU0ZWzKoDGunpEuZgrWl3PwGs611FHDx4e9OSJ0NMkRkCBDrl8UqqUrtnft5DgJP9vlk8AaUk9/t4SQPrvTz77FCOHjzAjZgzL7Lek2o6cZHg3NPVxBiCjOgPjRbjvQoz7HkQ5LjKybx8rjZOuc0x1gPlBhuHSOIlRkCP6hvTZmSjbnw/OSV0+TDh0BCrK61DFcnx8xhtqivHXZ6dhRPccLizM5r1elG5ehxtu+RvO+8nV+MEFk7mrWj4G9+rJ98WZOYddIRSXlePgSUchjzMUEwKa71VrJgv+rUndLlF2BA31dSjdthXvvvMO1q7dgCoBoh7q7f3XN/pNV1QwXnwxzr/sTtz76NOY+cmbwNY1eP/dmSjeWk7sp0RGQOwz7FD88ppLMO/jd/DcOzOk/SRf0W9iL/q2o+TtVezhZN9yC4gdo6uLhtvQkm1Y98fn0EDwSBvRHz2/PhEBxtsJqI8VdOOrqkeQR6iyDpEKfjKfjiAZQ0gMQdE4qf6JcD9dbbno4sItL0HXk84VRUwJoJVLZ1un2rpaLFi0CEMHDWZDZGSW/NnxU9gIIzEU9O5pVlqHCMo6GjlGQY5RkJ+hCp5z3MLckMd8MmKqiZzKsVK0VEn/Cr4Xof+/JzvNCDU7wFKDRWAmx5a4c9n/3Y/sqg24+08PcBZQjN/d9Ai+ffEVOGIAffvf/Ahrl83BKSeeicmnn4t7b7wGqQobTuOP7ANS7LjpQubhczF/wSr89Aff4hMuhiClY+s+FDv60/HH3PagFSkQpueN9AIy1kqLo0Nhaz+fNx1nnXoyevQaipNPORUjhg7B0cdMwbQ5S41DRZRBs2LUgb738r8xceJk/OyXD+CBJ/+Cow4ZjpHjj8VzT92L+qJFeOzp5/giqVCthfTizMuvw1GjCvDH63+P9VsqnDqJlEY1vo8IFSRDUQFqs5mf6H5Kb/LEcZLK5fRf+RTPhRJf3cJN2Pb0TGx+ZQb8Y/si+7hRyB0/ECn5XJw1IBdhgkWEAK/dvCIEkxgZgcA/XOkASlThl+nT76qk6oAqB0n/YQYHUjTOxoIMdB/U1wCuCRzGdrTua86h45tuIEt/pKvg8caM6Tht8olmLYIM5pKYEx5FccJ0yA/ZZhSfP0I7jJ9B2hQKG5WU6KmKiXB8XKUaN45TnFlHxag5VprRxcisUR/X+1MlpH18ex88iE+m5qxxuCSjlB3KRXuA4iD5M7rjf9Pfx6gefvztH8/gyp//FBPGj8IVt92H4hWf4XmqMF9+501c//MfMTwH13zE/YEU7E1hIFTWO2+8gj4jJ2DCqEH8rvFhG3jWmsnzO6bWrKClypY/d1FRsSnu8MMmtFSxtpy9pIAechm4zCcfSj2WrnAJLpx6OTYH0vD43x/Ad779LZRvWIn5n36KVVvqMOWk45FFP7cP3n4T770znQ/4W6jxdcc1V34fmVz8xMIo5R+C1XOm4dnnX8HEM6eiN4FRaqRMXxZBswqvvPAflDZmY/LRB4OONUijEc3NtuxLMh7zrEuNljrARbDVtol66fRKyydfgpybm26gGih57F2Ufr4B0Rw/0g8dhLyxByG9MJsGQTKJ0irGf/Ez9stWYyz0cXYgT5KQpEQad+XdE6OUH5NNgDrkBkn7DBymTdil+pXhL3cSN43plhU3JLN+6aKd//vSrX3KK1BnFeYPR5KujRH8+eGH8P3vXMoxUqC4+O/8lMrL5FX+Dpi0x7KHR5h0TaUto35TCVwEdeOSS+NNiAwYtMe4Kd1rnBo5Rn7aZiJU9wRNnCWqJ6n2CdHftnDqMUjtyQiqBoolkTdPm6ysbEw8ZjImTToaWQrNzefK70/DYYcfiaOPOhrZ2VnmxgSd3RRyQoaJxDDz/fewrMqDi849Fak+RnjlUyKDtMZJ70hrpX17i1qrFbbc5KcAn3oZP52QtY5SZ947L6AhezDefO2/OPbkk3DiiSfjxbffw9QTJmD+R+9h06ZiyvAuHHPS6bjprvvwqysuxNqZL+O/H843D7eBXwZUuewHlyPbXYfrrroF1QRTeQK5uSJ2ymknoEdhAd557Rk88dxryPHSBYflGTXQPlBM7qRmpSzvISaQAxAc9GLxBTUTb4J+SIG/PlyBFXf/Gw2UGnMPPgg9jxqF7qMHOca3okrENnKTj81lqKusZriAbOr8CRyUGsM8Ukob4K6gBEmJMqa9fXneSEBxE3RidWH4GUIgSFfQjIE0rvbNJzCR27AJ8q6hw9B29c8+dGu/skrNRGjBhqJN6EGf8x4FBaybF3XE046zxJWO9amongJ+RfYMF6QibVRv1DFGf6ScTLlMEn8tVXMBBLiyuoHqIA/HKkB1j9xvU6ql7+d6FIKuZ/wApA7pZWaFooB8+/XUNJ/0iw4JFEqEf3EKfjr4vcu9/M1PaWDV4gVYUVaHy8/6BveLTqUgEEEVbUYqR7Pg1kzW26c1qdvpyubDyOdZ6hH57C+dNQdnfee76EWjlrxhJJDHKBXf8Oc/YdrEM7CU4H/UwcPJAPjgU+Se+v1r8NyrH+DOq36Gkz94FQMp5Yfp0jZu4vE4hYauZ976L154+TxcduaJdLRoQFkt8N3/z953AEhV3V+fmdnZ3nfZDiydpfci1YIIKorYNTEaW+yxl8So+cfEJMYk+kVjjyWW2DsCioKIoCCI9LJLXbb33enfOffN7K4ICrgLiHNhZ957895t795zf/dXr7oZp//8bHTKTON0EOuG/HLNqeAU25suFsCaecibpZ+vY01Fh1QyqQxSs2QDGpZvQ11jFZKGdoGjdy6SUi0rYU9JBXn7DIpO1UyIrcOoW/5K8vBr+EeQcIg1QCqyjo7CzILCstyi5EVdUutH8WEp3yWLyYbYbozSNa6LcQAnNozwVpoe8kHDQ3Vtu6ZQGdLyWbV2LUYMHspeNEwGFh78Zg1+7Kwfh1nIbGjii4+gokFMzzy6ACHtPnc94yPQWV49e4KEhBZCY6EtyoDjSiy5AP/qqO2V0C8fabTGjaRLCHHfRfiYftnTS+Lv+id6XWNTgG8M+syb1fk3HxTZsX3tUtxx15+RRxXnu9et4TzhkGGdYtO74eqLZhgfTu0J0O2ZN5sSTodLD8iAiVIqC0Q1sDlIo+niIDOfHiepqSD1zgB1qKWRk57TDYP75pOCtwBFn9wEc5D3xJmkcG6990E8/Mj/8PtbL6SOvIexZ7Nw1XW/xAtvzsFdN1+JL+afyl3E0Th2/CAMHj6WutZk9QixxZohNeTnLNQU29skap/VJcuHC4fAjhORsjby6f3Y/PxMEyzFmZOG1OH9SZln0h8/20I+cRP98YuHH6Amh5taIfYKUvbV9aQcG8k3rkdlTRliThlB7RH66F9HF8Cavuwm+YvxUNZh3AuI98wNS+2OWnSsy0RcQjKbQRYQKyQ4cLMhTlGoWtFUyXZM6gcJdT0UYm4r3o6jx41v7yLbsTV7ztrJNmoBjuILcJOSlrZNZKkPJes2o6FHPBIdio1MAz2uwHay/KhHRqKCsRLYPxWJAeTMGIt4gn80XXEYXX6OO6G5xryG4Z7GnsUM1b1W3ayv4Mku1d2xZQOOOeEsrFu/je/gDebLhYP5R8em4ovVa00eInaaM9vl+bY4DYN/W/TiYZSHRb18e8DKkF0eCsUf11ywczKMPOo4LCEj3s6gJvzJjFNRtBGkqjKps5xHPrmfwSzsXBSooU//6THU9DkH//7Pc3jl+cdx6umTMbxbHncMfnQfPA5DundHwsAxuOGqS9GpSw5ZIhIwkzLWrBNaU63Oxx2EBGa7S6q7KmFqz0NNVCVpEGnCCvy8vGgvbUA1TfYrFq7ltp6APDALkV07mADoPqoFNpZUG4FgoII+3iUkJLVvI6vAVUm+fkUtGmprEeiSjh63X4C4HhkGFHau2oLiuUuQ1EiQIJ9J9gi1sQQhCgEHz5iEza99gar7PgQyEpA4rqNhPWmyi+j0sjny2GkMj0yN2/5D5agPVIaLsokG6rWnp6SZgtQvSj8+it963+Y989C0j+1oIMXv5HBRewIE/poV27Dz1U9gnz4QQy+ajOKVhdjyyXKk1/EJbv3k1qKcllZJowswcFAPrRVWZnwnOvByYYjQGGbfMUfzvrUY6LgZ8K1Rx2tUHGi+rhrtPuV07IqVazbxTo5PzikFeQ/YKWfg2HbKwygbJbnFHob67jPdx6th8N/HDjvcb9fAVWoZ1Na5aGZrcukXI4pC7oBJyBSpS60Fa8BLRZKAxwkgNbvsdAY34aqggWyof+4eMrsNwe+uuxS/uvU+vPjSmxh60+XkjngZQrARV//1PgYPP44Yr4HPcuXnJlgbMxtZAasW5uK3PswawZpIIiHnZOZZIqxxVCaBdY0XdfTBX19UxglMofKE7kjs1pFxcBONXxcP/bi7DWUvvj31wQ3FT/1v8mQdpPpdXAB83VLhPK0PuhxFlokoQ7WcczSjby6yCzoRzIOGaOyXXAKEASbWNOeUwdhcVY3y1xcjjhpDjv7U82d7BCGa5AJnHbdXUv5iL7m5eG7duplGXVFIiAn6QrJecXsV3W75ihAxhIX4jex3LaAe7qC0S9RO1cPrziIPdr64CM4J3dDtomPM2MqmPCd7QBeOW6vhisLViUsA8d3koylgM1pnZOvx2MHdg+60WDckftSZLMfCf41tZsXyrSNrbnxvo+VvSHmaG7X665g7FJ1zZ2LGrjX4zR3t8REG//bo1R9xnmKrNCczMq0JYkC3eYBbQ1aj38n7NfBpt8qhywnEf/LFlpqcgmSCqhYFjWG/vRrbNwHZ+Yk489Jb8OzTL+GBP92J2TPfwavPPIxO+V2Q27W7WTyUm0V+Nddkrw5EmRlqj3c7WCetHw7OaE1gz/py7Hj1Q/ioLRTdLRuxPToiMTeD7BlqfEjnm3/1dLjlLKMeOFk+4u2Lx4/yRrgI/JXcAaT+Yijyph5BPW3LklNtE3EmoNAsthEkHGR/CQQUcoUf1oLJijiIvJ1/ORFrKQDe9sgs9LjtDDRlWffoxmCP7lU79+cmCdGN8RNtDOYsmIcBvfsZK9f9yetQeUaWtBpbcoKn92C9C+486VvHTyo6soLsrb++Dlf/dHS/VCqtpK6DgG+A3KC33p+Tb4CyADXMz2NzoJ0miQhtc1kK3yzzFVlB2U4Exzjv1rgKLe4W8OveH08Kg/+P510doJpyRCsRPHUkKt865RkpLcGZNH7MNd4hgyhpi2jrzJnDT/JP3Tthi8lCcpKCYHMbTLZOw5YiPPn2Ztx62Qkoq9yOvmOOxIlXTcDF580gCFlPs0jON5VqlRmsgClrbz6kQBNCfx/r5aAKpnt7BWo+WY/SjRuQ0EWgTzP8PAZgiYsilV8LPyl9n0Itkm/vJbXvozaIjdofXhoABajB43a70DQgHQMuPw+2ZGpjqF/IBlDdTEg/lqk2+gQU/C3UN7rBLD6kQE1YP27rIwhWOT8bj60ljdhw92voeN1xcOTFoo47HYUbbM8k9VbtNLwUTi/84nP87NSzDeuuPcts77zFWpPKrv5ZVubqfzt9LzHsZQktZv/9MRpzopF55URGULPcVe8qeFUdrSEX4Biowdo1hSivqeZVjUGNbb0YvltS+ukdctCzoCejfemKKdV69zx2iO/Z3is4a9KWKQz+bdmbh0NeBuAtWlREkogjy8UtzbsMVatr1iIg6aYMsmSrqsFPuDPk17aNSxCf05lO2XjOybh503L88da70NDpKAOINeSZX3HLb9AxN8tQbqbbWJA1oZg/J7XWFzMp96FPfaK8+aCN1L691ofi9z6FewcnckIEOozrj5j8bEQx6pYA0Le9nOycBvLvCfhSzawglW+Mfmi5W+ZGXXUFooZ3RdyRvdCVRj4RnPFqn6HyWVMB6ZcL5uP5/75AmtHSKZfgI4IsLC08GZ074siJEzB8MG1SSCLKSZfql5SeiIhrJmHdvW9j+2MfIfsSAlOOFa2rPalHQZlUPBcvW4qCHj2RmJDAWrNNQUp4H7r5kLlV4RHNAiwCg1o9fgbPkR1KLGMllDz+Caqiyc75zSlI7pzG+yQ92gPc8TdR916qZX0ydyZuv/MPqPdH45rf/g7d06KoIeTDrHdew8p1xZh65gxcdfmV6EjtMyqK8b1qkhwyXbJPFdlDb+xTHuGbD6se0EgWVGhMi7yVBaKPscT9qGmyI5mm7hSB8ReLt2kGkBn8nIAEepvdjXnvfo6h51xDyrIWLz32FC69/k5UUef9mDM7Gsq5e+8hfF4baYvXLZ63pUqnicSyVSzzFOtmX2aWEcqRH1u/hNTbqwsQyExADPW0Y3rnIaFDKo2sCPqldWiiL54A+fcy7beJ0ifF76X6ppvXGrgbqGNcgdwrj0P2mL7EcxpwiV3AuhqVUdMxlIBQt3Xg8OHo0p1qeRdMx7PvLUFuryl4/J+30MGXB0/952GccMfvEB0ZhTueeQsXHH8E9c4pDbFHIT4zCQV3nIKVN/8P3j+9ju63z4CbcgABVLsldS3/ffTZApxy/DQD+gb4tbr/SFOAVL/h73NhFX8/Qr6hygNYf++r1NqJoED+dCTTrkIrtdFWs4b1blurRT0htQOOGDUS6Qz+0tTgxLTTTsWIbrlGz/8XPzsb5009Fv+4+264uDDce8cNdBct6l9rO2fBj7Abv6M7dttH4YuHaA9IYU2EtwFOflk6ORqc1nVNdOkhmBv4SfqUN+l3/ROFbv1iCEF+GMMfumVYv/ZrPHT//cjN64J/PPA4fNJr103mT0DNpzn5DJCQJxpwl2P+os1Y9+k7GDxgHM675g70Hj4eL8x8D28//XcuCGIMaXnhJ4HHwUknU3xr7rTMIB1ZdWuuMg+sZLVDx6FK84g+1xtW7kDxC/NR/MEXcA7tSpcM/RE/sgdi0uIJ6lWoJbVfu60Evi0VCBRWo3E7nbTRcKtxWxXqtjA0I4PI2GjYM+iZK5EzsR8jObEWVPuM4kqk+ngN9chqc7L7JZSLoNA0LRX9Bg02u5Qho4djwlGjMGr0BDzw4FP48O0XaQ3sx28v/CXenLOEOTBGLLWWJBSOjopF99umwTMkF+v+701415TALiVvlqRPw7/mt9hMaqfpD33sZwqQbVFRWorqhjoUdKNGC/teOf8YkgS76gf1iZWsmmsnqjGiXZjeh39zLTY8xAAqaYno+dtTkcr4ylLjVBAFv1HhCT3/ze+ACA72sNEJ086RZ3b1e5AQiaAKgzM+Eddefx7zC+Cd9+ajlv5/dKfOfyz9+M1WUzay64Xw+Y+0BzgChf1SqhSUilcZEjp66TPfRkGWTfxRjmzDuuD9ZmHgBbqvRxSBW89JYCoq3N9Qgd/fcSfenPkxtpS7cdef78Ok8RMZCk/LjMS/An2LopJcQEZfmqSbV3+JdxfOw2sfvo+CYcPx5O//gnHjj0A6jaZMhCNOWCVripkDPq3JZx2b+c1TXTEWkrygyaW5qLrrWC6iFRSbpfKMqZTb/Hc/RX1pBYNtJyF5Ql/Ed86mgU4UPPV02EUd+wCpfTeFtgFS+KCefhMFuk4Kc5vI6qmhxW7MxD7InNIfiT0yGW7PmhbG9ZqK4J91pYWva9VYIf8kdBS7QQsmRd7BOiqYSP9xx2LGmMG4951P8M6Hc3AyNYQkgBbYiFiMp9uALldPwaanP0bR43PRacYYRI7IIjuBfUs9dcGzhJkSLErBROCneugNazlo7kP1wfck9Vfh5s3o26sPn6M8hPnKClb9eqgn7QxdbHgEF0eNT/WFlbQo8Lo65usqbHnuI/i7pSHv6vFIycow780abXpLe05SBZZagrLVRoiiXvYLlwKWZZyv+SlA5tjO7EjvnpxXtdVkJUoSzMLtHM8qXsuQKXDPxRxyv1hj+pCrVrhC+9oDdm553RHSEtbEFvuAFowcxh4PHYrR2AXRAVDBkMCpCUNOPfnPjCxuxqucSwXIL7XT8MXHAOIfvvcqzv/Vr1HOMX7uxb/C7P+7BSkMfM0gs8yTrAuOdotyFATqT8uOwB+YR1VKF1003Hnf/8OV550FB4tgQXSNS8dw1oku7FUy4MY5pXzJ0TUlWQsFKS7uODwsp3HOV9jBOKvxtBeIoQpfWo+OcHKhcTFCVZOsc6mu6aL7Zb9UNytraaxFC11q78i5V1O5CzUpfnT6y5lI6JlDYBUPWYvKviWxa7R7MSZkBHfRkBGSd7BPc6hRJGvf4tKdxmIzUoJBJv3sIapH58Sh4OqpWBv9ATY+OgvZxcORNLUX6yH/Lg66fuACw/7WwqpFwBhpkYo3L054s5fJT99Da4s2ol/P3uYJAZZy+TEkD63GIzkuGUmHfeFkbGSNcvHwqXPjj0Ljx9tQ9PRsYFQuet16PKLJmlQKsbX2t53qI/WScXhHNt+qzxm7mat2F8Y7jmDwd60UukXvm6Xx77uWGP58iKUw+B9iL2R/qxOQB0M+HBAFTrQUlb9p42o8/b8PYK/ZiL5jT8TxU44iKFnD1cWBGsUJpDErreIG+s2f++G7eOyhh7FwxRaMPeZU3HDjDRhS0Jl8bwIaVSK3b12LuXPmIz6tF6YeP5JUDyeg2Xpb00tUZMceBdhUuBZJyfHMVTsCtYiULhFVnCJ5PtjbZACKz1hh9wSulnodGvyopfvbpq8YLam+FokT+tF1Qg5iM1MIjuT/EvR90sk3vHwKdMnH93IBAI227BLy8tyZmoKm6bnoN308IhI0kdkW7WTEQ9jHOSxLZrtHKoJ0A0wVwwgZ7PA91JduxGufLIMjOhljBg4ylKRBfbZDZQjUjftovruulx6JotQYFL/4JQXOtUiePhj+VLLF2GottNLWEdJYeuwW1OxtP+o+vfbSqgocnZ5hKFW9hh8D1a+6Oyl30s5FUdUbpV+vPiFl7qxzoPadFdi+ZC0iz+yPnhceQ9sLhvTUoGaD+WnAWXnsT7KzDKN8QMJl6aKP8Nv7nkRihy648qIzGYbRaOSbbENLwP6UcTCfCYP/wez9tixb5LEGPClEqRaSb4NFny7CtOnT0DklCs8/9xIajhyDREYbEm1qTEyExBzgCjZ981UX45m35mH05FPw/Ct/w5ABZJ1QWGnAykfB7X9fxL0P/D8sWVGEP/z9QUwJjOECQ30HobpBEkG8DRMnn8Q6BPPV7OPP2ocIT/cVbHS/RYlzerEc2SC4iypQPPsLeKmeGZnfAan0xRPXmdGPSBb7GTxF7Bwv3TLIz7787cvVso2aPHLLYKMOf3FtJYF1ODKPHYTYXAqBWS+vqRh1QXRi6YvyYO+TWALiSTvZl6LORQiWl23CbTfdjAWrtmPs5Ok4c/pk9rn6iz3BPtFCqH7SwuHlLHTyWv5ZI1HVowOK//UR3PfNRsrpIxHRJxkB+R1QxkZGI1BTRVXQ3qcKqjE2MgZBh7R0swjt29N7X0573CnvmmKwqc2G4teY29CArbSarikpRYcrjkTOUQXGDYiAX9bnShYom0NrjAYP9+arkbEObrj0Qu54nVR2cGHdmkJk5PXFi/++HaNGDaIyAke1kQmwLL5DM/32JuND6J4w+B9CL+OHVMUa7oJfjUX6iqGlVdH6QgwaH4moGAoaaZjS0NCAZB4rOaS/LMGlKF7C0vhjp+Cki6/HUWOG8nlOLiJYk5v66MsW4bxfXoLVdGE8+qgZWPnmTHTt0IEDn/4wRSXrVpUqNDHzQFNOIEcBnPlNsUuJhsxTVK65pEf2JjE/8aYNe7XWi+pZy7FjxWpEdc1EwmiqK1ITIyoh1kRgaiplxC+yeHzS2xfFT00e+de3VdBIiwuAn4tBWadYDP7HlYhMJ3Wo+rAOqo92C6bJvKLFZl8If9NsH9Vd2cZZbzyJHh89icqSSoajbELPAcMxk66sx4wdbOL8qht8FD5qR6QFw9JTF3WvruM5d1Gpo3rSZUQWvrj1adQ+8h7yThqNuCO6wRWn++RKg9Q/qWDDj96bPgze88as99C/R2846IBODTfjxJS7D5kcpFsj6T7ErQWWtbZzA2f7uhxFz8xBXZwdff71c8TmJbFJ2hXq/bVNJaNj43D7X+/HoI6piCSRFEH3zNExXKhtkdyxmZpotFjjmYMgDP5t0+/hXPajB/w0bLF7yXoghSjqyEXWQ/GmHahhIJGIVPprF9VMtmlrkNaAtXMrLcXN087+BT8pSNViQJXIuXOonfPOW3j2pTkYd9RkXH3XdJwxldQrLWSlNictCsXQtYyyghVuNQO0TTcgKirNQlYDOAZwgwtFqJlmm85fQ4CkShptI91AFk/1p6tRt3Kz2fpnHNEPMV0y6PkwiT50qILKCGAegr6MtRrpCtdOVwwC/QANtfzcHdRzF2Dr1gFRM/pj6NGDEBFtscWUtTY+BiuEpEwGQEwFzen3fFiNMHVmn8vYaNLxZ+H+G8/E1b86H3MWrcXEKSdjOOMQkGvGcrT/oYNrLooqVMCvRdrEGuA2QPrqIQ2cGFpGj73/Mmx4fh4K3/gcKau3IX1iX/h7p9DwmXId9qnKk2qrli8tCF69d+Yj8Y7cOChJoFtdVYkdZTsx86M5uPc3/8eFNFimdctB+RRAs+kGOHWs7te5aRO/xbY0u0eOA0OEEPjjuMC6N9Wgfu56bPlqFRJPGorBPz8CjrhoM1bMJpbjTPsi81jrluklfUfSGNZrD91mvvk+4hKikU5LdWlnWbtZ7e6CGelbOwxVnE+Gng3++qP4ClP+P4rX9P2VNDS/sMAMQ26SCdBVVTuwntvi/lkpnPQkmai22DIzggOWo1Y+UTSIBVDeku246IqrMOvDZUjMzMHTzz+DkcOG0ihI1rqhFHStZi605KNfrXuCvklaLlgPshgVpfVAXIzQWiENR6MJxG8bZzG/eCNd8i7djBIKkNUsRxdS+7LOzUw1eRm/+XTJ0GgEuKL2Kcglde+jBo+d2kku+oOuCjQi7dwx6DCewVMogzCVE8iaHFp/WFdM95mP1r+1HKtezc+GKq9r2proF2c8Ovfuj//35EOYNvYEPP6Pe5Dfsx8uP2eSaQNXZ7bTovMFHM014XGoWPOtQsiD6spAIg10Nrbq72+g4eF3kTaqL1KnD4Mrhgu9NF/YUx4H3xkFoJEEfC36Evyrb13kjYsyLdy4Eb/9173YUrwVr739Ji4841yGkIwzFHJwzWNhBzZxE2revQF+DggPg5U72B4FYZEv/pBcRMJt7RZjGiNRO2clSucsRVluNPr95Wy6aaaVNn0rWam5J/Ww+R/8Ya+/9G61iGoeqQoqV2dmXvDY9BUXIfOrQN/8qm+rPOuKufyj+QiD/4/mVX1PRcnCEdVntr4aotR7Ts+IwfyPP8eJ/ck28HoQRUrdsHmkZxgcwMpVFLw0I+Tb5shho2kZmYE7/nYfLjj7ZPKiOaz5W1sMbhUpYOIcMvNKE05Jhjoy2BEYyD++dydZNLNXoH7zFsRSV9tJTZy4zpmIjos1rhjE01c8Vr8AnwuA/O37GTfXR2o/QMq/nhpOVaSSB113PpyJ0npS7VVaW7RCNWYKZqVcjZ452+SUUyNez+48CP96/H6cesYFuPmC05GTMxPTJ9I3vPjWpirqhN3Xxfys7Pm7jVuGuO6pGPKPX2Lzm4tR/ORCVNMTafbZExHZJwFuts0YtnHvpiXFRW0s7SbMWsRzJ3UiPYwpUFxRYbSE1AdRDBgSSgZ8Qy8hdPEAfIvC1xJvZwX0L0LRtbhYSaPLqG3ymrSdPBzQjjU12PziZ6ivr4RzRj+MOGsiFy/u3sz7bKPKUg5j3gbHufWP80eviNmL4lddtZRaY6iNyjwEsgmD/yHwEtqqCobNwskvwWiAVH5BQS/87fk5KL3kNPojiUGMvFAKaFmgBrYZ8MHChUXxDEV331PPoWPXbsjtmEe2iCgd8lolpGyjZGEep1gIdPitUsTKCFR4UDXvK9SuIYsnJRZJY/sglv54IuNpVexi0PStJbTEtdg68sMTML72ydMnfz/ABaChogb2oR2RNKkfug3uQuUQ0cacvNYsbmlwqOzWHbAX7WvpOcIA87DawsVL6p1avEiBKxawgzzqQeMn45ZfX4qb/vB3/Oaqa5H13ycxrn93i0ugN6AF1ZQvCvObScBvJZXIvuf/vJOGo3FAJ5TMXI61r89FxqdZiB/cCVEjOsEdbYUENMJx7Qj0vCrIhbveQz9FdN/cN78HTjt5Bhd6610absU3iz1gZxqD+ieulcaX5Dp2LlR6V1pIIxnu0vXlTjR+tQMlazYgfmwPdJ46CQl9c7gg8hnhsKHK26bKGg6GLUc5mMvnYeAdFsD32ET2p1hQGkWGLce7Qm+mbUo+uLmEwf/g9n+blc4xSmCR1okGsoDFjh69+qO68Bm8/+nnvB5Hwa+iF3Eom3t2LVrD2oYxE6nFw52BMSpiPvLhb/H19XsbJKKO/lkOIrSdJvCTYK77ZDW2E/jjkuj7pn9nJHcnXz+D/Fbq8nsI6n6qbrrJ05cAV4LdRhpv2cni8VGTJ1Bai6p4O3KvPw7JdNXrSIg0lBtnMP/J2E1tCNbdmult0BDhq1QBFZVXYGFM5pivFgJahEYl4oJf34CViz7DQ+8txk3X3YLZ77/EgC9MrIxkGrK5MNwFXtpdtfSeDCgS8ESlJzISWPwlE9E0eShWPTUH9uc/RPKcDORMHQ3HMEY6iyB4kYIWiMq1tt6bLLkjubP7v1tuRybdFwj0zR/z0y7BDAbV6UAmNZa1FFUt8YRUibVWRVFO5VzXgG3PzkPFjlI09k3AgPvORFSnFIb1tCJqqb6hHa5ZANqk3lpNAqguL8dj/3kaxWVV1H+z4+mHHkH3392AnDSWb+rM+rLfrOWzTQo+qJlwDKrbD/20ePHnWLz4CzNJLr/skkO/wgehhgZSzRZWEx/YXrgSp58wHbXJHXHppTfi4nPpRVJAJappD0lwaegbDQuSWDrTn5Ep7OGZfbmsbKVaqe29jS4ZGreWoWruClLtlSaKlkIoxuWlw0krWwG+V8Jcgr7R2CF176VgF1TZBKn9WrJ9ROXWDKCLhUsZAzVOuvbBmrL92lGEdHp4qvltJZ7o0FwLXtq7r5anBNwVZSVYt3YV/nTHbXiLhmbZvQfgkYfvx9A+PWjRnM4sCb2NZTj+yMmY+/kaTDjpXNzzu2vQo2d3xFLrygBKsBKtqtZcFV2TMZuEwrJqVgQzQ91rweR57dZyrH/ofThXVBKRIpB/3HA4etKSOjWBylYcDeSxvfr+29ixYwcu/9kvDdgqc5WrhUUaR99w4d1ccjsfsGwtyeLx271kTVVRHrWxmjz9ZaguLYetVypyKMxNG9SJbRbbjsksmNY7Yy/wQKOybWA4QGd8yrmqjPYhlMsESPyIeDKkA8dTZopUgq1OkzEfSZZ27qADk32Y8j8w/XwAStFQFfAF0YRnWXldMZHuBR54iWyCzrlGsCveutHt923DB/No9DNxoKEqLSCy4NKqrPIRb1VLhRaMUL7Wr6FP/R76pfmYB62BRVSrposoZdXS6aHl6o4aVC1cidoNWxCTwxCK4+l1s1MHGgE7GWPVTUCoslwucwHwV9JKmTx944SNQt3GyhqU11YhbUx/pE4eiB4FuSzAqqPRmCFgWrVXoSw5VMHQd6s683AfUksGKqeKdVy1ej0mTz8bk6ZTkMqcNq9ZhfzcHOrT06EYF+KI6Ezc//gT+HDuQi4FwNp1q9Gpc54B/+Z68XpLzi3V0TWHVnH2mdgdYo1ZcCf3FtRG6ZSBQXeche2rN8O9tAirP/oMCe95kdQjn7ICejAd1g1983pg1IDB5KnLhYcobUGn1T96Lzw07yYnGevaAABAAElEQVRUvt6h2RHoB5OCIyp4KraMNgzmfepe/fFhjR+TR/A+dXuIdJBLC40swz/nu5GCQbSLrpeX76AW1w40rduGEls9so4aiOwho5A2pCspfVaYbbfi8VoFqRyLOBEwt12SoaIqn0IVZtnJiGSwktWC0AZJ7WsrIqjtar//OYUp//3vux/BkwFsWPweho2lte69D+O6y84h75+xZTm8F7/8X3wZnYuLpx5pVOwUz5QzjW0yU3jf2haaiaFHeS4KXywNQQ3nOj8tesnuCqBs5hJUL1kPR04KErpnIYbBVZx0dWwj6AfKa2moRX4+XTE00WhLgVa88rtPeYDYPHX0OVGZ5cTga89AZEcaQFF108EJa6KFiTrct5r/aO82/at+Z4MNRHHtU1B5d2El5v/rJSSvr0Y6HXpEsn8zTxgDezcnGigDsfjr9FRKVosA2xGg/q9eFAFQ+RgkV7ZCWibzJSQ3ibsQLuBaNMzCwWtac7U+aUeiJcUs9Lw/gvwRo0LJQpo4rqQRFdPEuA2l9A777hcoX7YJtTRELM91YtAV05DYi2OAbhlsRiMtWFz4q117IEz5t2v3HqTMDSgYbircLg869+qEd954GeeeeTxyqR/vKt+C+19djH8+fDonKDUsOGkl09XkDU3z/ap5EIwEGKLDDTVIUJARlaPBh3pSeMXzVlAbxYtEet2M7crYuVwApLHi505AWjxNNQJ6ulyuop4+jbN8ZAmYcIq8Bnrn9E/vg+EzxlPjI8oAjoktwAKllPRTSxKYqsvVv1oEwGAzMYMycdSDlzGOQR3WvPYJItbSk+d/3qQ2lAcZBfmI6deZJC6BPy0aUclx8FAOJNjW+xJlrn408YRDA8G8UxrtBftXhINoYyUttWJFKRmBKA8NO4+ZyZeQv4aqtyU0tKsla+frImxZuR5u7uyicpPQOLUjek4fi0G0svZG0ezN7NaChZgcwx/t3QNh8G/vHj4o+ZupbNgs739WhEeffBw3XnIZ7r3vIfzu5l/h2SdfwqmX/AxpdN8gOYF4p35SdBK+/hAUtWBAgCRBMelI8d8pxGtcXYyaRWvgoiAtmpM9rhedsPHbhNWjz51Getz0Gl889Mcja1z9EfSlwaP4uRX+RiROLqBLhqGIpc2CjTrwWtqET6L4TUAPNVnY8VPCD3a46QN98Jjrt6HUHRT6xubFM/rYZKrNeFGxuRTe9WWMZVCLlZ8tRuPGMmTGpiKBfn4iaCVr4+4pPjsV0Xm0ocgifzuKsBCpDmV+XA0E9nyNhqp3Ui1TpL5YITby640EVNd21tI1dgmqKYcAF3pfI33JllZhZ005AnmJ6Dy6D1KOmgAnLWaTu2YjIla+cayXJeC3ZFE6D606Kj2c2rMHwmyf9uzdg5V3kCfgpX/6r9bvxODeOfhq6WKq+p2O4voA7r7vfgp/T+QclgaFONGiAYJwqj38PiROezOF9S3dAVGD0mSRsBPc5le9tBCVawpho6vk2G5ZSOqeQ1uoaLjqSBUS3AN0tOajS2Wju082j72CbAiydxRYpYnUfmmnCIy86+dwpNDIjLjgM1S+SmG5LEbr1b7VmA8eDsnCZqslwQ4ICYNDzVPfaFHQq6Xtl+kvhzxvuKgVRPbZti9WYv1bX9KuohKJHBcJ0qvndsJB1oufbiAiuHgbmYPAPsSOIeD7pQrJvP20IfCSwg94mCkvNNLXU3WCj6ETY9D1GAa6GUVr7Kwk2AT0wnQ9wy9VypIm6dxaXHRN/PQw9JsOOiAfYfA/IN18YAsx2MvJJA0FmsqQT0v9c+3nvXLZzEnGrTc5tzRVlwqkjiwjF0Ox7yP4h1omjBGj30YWhL/BhVoKIEs/XUEdfbIXKHyM75qDSLqZMHUQO0BuGMjm8ZLKd4nyp0DXXkoFb6pyVtdUwUb1voRjCpBNgbSdlKjaYrlAEIixpgQpsark7VJVlgqewINfP4lkMWrUWv6Zzlez9c75GeyE4BffL+8ya7v1VNGmTcjOzKDqL10f61lR8ARxby1dXG8rRcV2up8uqUdNRZXlKoIZqG+NYiDHi1lPaFwbkRjHmARpSMhIRRKF9dH0swS+KztdgCiJLaUkzpDGltkxWEfMjaw+Fqv3qv862s+hp4fDaT96IMz22Y9OO1QeCWnpthgFWTWzJpGmvrxGWq5nzXSkkE8sAU06aY7IMMkiyaznNMH3lBTCRSJbwYvuEqDoaX/AQ7dwEYZfLDZA3aINqFq2lj79PYjtRctculqOoUsGRfCSwzWPjLNI8bslyKUKJyrkbpmGSGTz2EpqUEcD1JRzRyNlVG/672HQbda3Bc1YuhE+EjIsfGH1VRtRjaGa8fQnkCwa2aBmS/fozWgBZvutX9QR1rkcDOnNqduWLf8Kz339Na648gokMkIVN4BUDaXPfAa1T89KRBrlMeYtKxOLklBGJoXylRuO1lekIRS6EvyB7ySU+JSqxtPWtL1+N29t1wdDj4W/27UHwuDfrt3bfpn7GCCkkQFLnE6n+ZOLht0mrQShyRX8NneaY+vCHp78RnaGUhPLRahPBDE8X3MHT0hVBhg0u/QlBs1mqMAoBkpP7JmJ1E5UL2U0LTe1dVzGUEuulWmNS2dj4u37qqh1QitdW0k1PPQ4WlqQiOE3nIXIBAZZpxtjGYKJ5rfqrxqEjlsvWaqEoMpqi6nST+bDavM3Wh4kn1uufbtnpp14ImpravDra36NBx54ANF0+WAIiOBDzU+Y85acrJ7etXOt35uf2fVn85D1ayin0Pfu89tdBuFr7dEDYfBvj15t5zzLaYn41ltvYc2aNTjjjDMwcOBAsyXfdQfQltUQO0f46peuIJOms3EVUdyImuWbULr4K0SQBZDGoOcx+VnG1bJPLhm2VFKAa3nddMvxmqh+qiTaSsnvJ9VfW9sAJ3cIqdOOQs+h3S2tI64s0u+W9kk4tX0PiFA455xzkJKSgltuuQUXXngh+vbtay0AbV9cOMdDtAfC4H+IvhhVywhQWwGgqP13330Xzz33HM466yxcc8016EDDFKX2BH7l7yGvVz4UBfgyFLIz8G/1BytQuWojbOTxxg/riSiyeOIZPJvOUehyodq4Y5COvo98fIG+jwJdH0MoBijI9dFKtyrVgc43TKX2D+UBCr1HFo9Y0xadSDaT4ROEFwD1f1smjRUJdU844QR06tQJjz32GK699lpzvOuYa8tyw3kdWj0QBv9D63001ybEz5dmhUC/pKQE9957r2Hx3H///UhNtVwbNz/QzgeKcmU0bdwUIhdVYiv91bjr6xHPwCPRDKqS0CmT7Hf+Jk+bBHdPDWPoSpBL4JcrBlBv30VXDQHGzvXwn/uoPPT/+TFU+aO6KSlRsfKl92F80oiDL6b+3vCj2rndh3P2WgQGDBiAn//857j++uvx4IMPIo2WyRpze2QjHs4d8hNrWxj8D9EXrompBUB+WV5++WVUVlZi2rRpGDt2rKHaDjiFRgtgb2EZ6r8sQtXaIjhyU9BhSD6iGEIxgl43bXVNcJON46ImT0CCXfL0vWTzQIBPV8tNZP00uV1wDumIjJOH00lZZlCHXHogsjGQ9oeofEukKDcUFs0fpvzbe4gOHjwYl112Gf785z/jtttuQ2Iid2/hdNj3QBj8D5FXHKK2WlP82o6//fbbuO666zBkyBDEx1NVso2SNLNDUYmaVQOJu266f4g0qjQ2HlvOtxgkDBVvfYGK9YVU54tBwvBu9B3DEIpU9fMx1GNgRxWaKLh1Mwi81DcbyMe3Eext5dTiLmlCI33glOZGoP8lJyGa3jojFGSbVL3F1hHcW4we0f5yMyC4NyqAbdTWcDZ77oEQETF+/HisXbsWS5cuhY7bm4245xqFfzlQPRAG/wPV099RjiagttlaAJoY+3XLFrpfIGune/fuePHFFxEVxUDqbZzo/dcY/hgAJugLcLUIOGkNJJN9gW9EPTWK1pVi27ufGXXAxIKO5OtTZz+bQcDpN95LPzw+gnyD9PJF6dNAS9G0nPLGWelCPR2wISYCUWcPxcgTR8AeLXC3eDkqzxTKD3McOtV1k0JXQ+fh7/bsATdjfIqVWFdHNxrh9JPogTD4HyKvWQvAqlWrDItHFP4FF1xgtHjai/dqxfol/oq9JAUeYq2xA6L+tvT1m77earR4GujmNq5LB8TQUCsum143Y5w0BlJQ9Fq4yd4Bwd9Lfr4Cpyt+rpcsHhetdl0RXsQd2QOpxw1GDE365SZAgTEMZ+cQ6fNwNRhHgWD/yiuvGIJD7J4ZM2aEu+Un0gNh8D+ALzq0xVaROlYS+HpoEHX33Xdj48aNRvDWp08fRNCffXsmBX6R5ryofW/QuZuJsFQXQOkbC9Cwifr6WclIohZPHIW6zphY+MnXd20vp65+MHQigV8hFD3k89sYN9dD0K+tKkdNt3gMvOYMRPP5ADctJt8Qb6k9GxXOe5974Mknn0RSUhIuvvhio/oZyaAp4fTT6IH2RZifRh/udStb81EF/vXUlvnss8/wxhtvYPjw4Ubn+kBNPhOgWuwe/skTo18O1lZuRel7S4CcRMSN6IzoLtTXpxdQuH1oov8XE1xFFL9cLTOClk06++Tx+6jN08BdgDcjAWm/nIKCkQXwRUl3x+Lri4Hjt9O1BMtqFdp9r/stfGP79UB1dTUmTJiAzMzM9isknPMh2QNh8D8Ir8XLQN8LFizAm2++iV69ehl9/S5dujTXxLBiuDi0Xiyaf2yjAxL7RH7+0Y9aPT1uVq3aCndDE6KHdbL88GSnEKjJqqG2TkN1nQmkYnzwEPCluumnCqeL1/0ljahPoLfl00YgdWxvRGckcjchb0FGdzPIUmJBpPzDmptt9PLaMJsxY8Zg/vz5jPdcgANFeLRh9cNZ/YAeCIP/D+i8vXm0NXtHxwJ+GWeJly+1uoyMjN3qVO8r8MsVgoS08tkjULeYSuLj+4zPTpnOitMkHywULVOtknr0tM7d8crHZNdUI5KsnaRB+YjuRe+bPoZDJEuniVo70t7xVSmwCil9An6AwC//PD5a6HrLXCg+Lh2jzp6GiA7URGK54ulbgVt4oFpIhsAjA/2hSu1Nx4XvOSA9MGLECMycORNz587FpEmTmsvc1/HX/GCrAzkVlCApgkHjpc5rk7qwccdNf1Bemgw6SEiAriWChILGiRlE5rvlw8WIupE+xm9gUBgHiYgANdI02n2kXJxeOoPidYurGMrB+m7JIXy0ux4Ig//ueqUdrpWVlWH27NmG4tckmzp1aptSWhGaFJwQBl/5ERKsmsWA7THa9AJ+ulr00GNj44rt2Pb5V/TpnoLEcX0QQxZPDK1s/dLwqSyjvj6BniwekL0jHr+MtHzk6bvJHmoi79+Xn4Cs6yejR59OdApGFg/XHEPZG7wPTb4WTR7TpaHL7dC/4Sz3rwekXCADrzvvvNOEpZwyZUqbqRQ7GAuXbldJaGhk0GsoLbgjuONknC+j9MXYXma8Mlozv3XP7gdIpDeSXml9xmOsCBhSS6JiuLuMJvwzQy0wEVZAGJVnnE/xM5y+uwfC4P/d/fODf5Uw9/XXX8eHH36IiRMn4vbbb0d6enqzwFe7gbagskLzRkNfHi7NrOIKEIJfgb/dbUfd/JWoXrGZ2jgBpA/ojpgeVghFO3ckvlL61SfYN1ADxEZ2D6i+GfLH46PqpouWu/UpTuRdPA5Jg/NhT+JiIS2e4EoTmrqh7x/ceeEM2r0HNP40Hv/whz/g1VdfNRpnkj+1RTLjmjtO4bGf1H9jSRH+eO8jSOqQBTSW0mVILC687CpkJcdzY8qgQrIvCVEtrSoggz8HFRRWf/0FnnvhTTo09HAXwMWAC0BkfArOPuc89O2Rzie4O+CI1zISTt/fA2Hw//4+2qs7djXS0qRyuVy4/PLLjc8UuWaIkf/0YAoBfug7dH2/v0URMQn4pckjKyqjrx9cB7yFVdj87Cx6y7Qzbm4u0qi6mZTHSciJ5WboRC+peg919L3UzffTxbJ4+qCbZR+Nt3yldTykPOCUfuh/Gi2MYzhJNamJ8sFirbVHJ8Fr4QXAvI5D/iM0/qTx84tf/KJN66s5ECDrx2+PREXhKsyYfhaGnHkV7rr2Fxx2ftx925W44qob8cTDf0VcLNk30j6wRtI36uFXMAISUS898zj+et/TXDTE9uGCQJQfMuY0XHNdmnlK7CDuAb7xbPhkzz0Q7qk9980+/6LBrlRUVIR33nkHGzZsMBPqiCOOaHfVTfE8NXdEhfu4zZYXTs0FV2EJ6tZsReWKjYjtnEk/PFn87oAoumRw19Ewi6wded2Ui2W5W5ZvngCB38djD6n/Jr8b9oE56DJ9JBIYc9eE92M5CgEj3/ok/K05q4YHgV+H4RTuAYsFw0HR1ICH/3kviiO64Y5f/9zIADRYzrvoMrwx7VT8/dn3cMtFp4h1b8bQrj3nIKFRWrIRm3fa8cDjjyCecYftfjKLyArq3nMwUhgwyKJCtIve9enw+Z56IAz+e+qZfbwuCkrC3H//+99Yt26d8Zgoh1lxcQxIwqSFIURl7WPW+3Y7J5Bh9jT6UTpnCRrW7oQ9LhIp0tcntR+ZxPo0uuEqriSLh3r68sND6t5Lvr6Eu/4qCulKqeHD4wbGgc0/9zgk9M0mtR9FvivpqqBsQUBv4vRyrxGacM1zt/lg36oevvtw6wGxfBjesWYVXnxhJiZc+hsk0Y4gECAlT0DPyMjEoP7d8Pe77sbZZx6H7gmyZOeucpckkcHcN55B33FH46xzphsRsYgc+YJy+LgL4Nyydrkc+eGxt0vv7fk0DP577pvd/rI7EBd7R4D/xz/+ESNHjsQ999xjAmTsNoO9vKgxHEqGmAkOarlTlljXBFXhDya0IQGZJlaIFAo3cBFaXY6iV+dQ/5Jh9qS9QzZPbFY6HHS17Ckji4faOw200nWWSZOH1rik8kFXy2L7NHInQBdtSL9oPHodPRR+KmUobKIiN5lpySK0uBi+qqlYqJatiLZdrrfcET461HrAFXAjyrxkimR9FObT+Z7NEYMIBXCnfUd9kx/xVARwEoHFTzcxfXdphFEm4BhRtDYzPzgWNUKk9aVxs+TDN7Gq2IVfDykwmwFZe4s9GRWXhoIuPVD/yof48JPl6HbcSD737dRYvQq/u/MBVCAWLz/7OK674Q6MHtOLCgqRSPRG0aW4dIlcnAwRqGeAo6bGrQxM3w3xtFerKieRwwXIw0hlaakxFDE7GMhG99TDRY23qPgECrh5nUYoilVhlU+BtCU8+3ZlDqMrYfD/AS9TrpaXL1+OOXPmGJ88N910E/r167db1c19LUaD8BtETHBW2MXf4RDleCZ7R/r0VnK6I9C4Vi4ZilC/owyx/TrRLUMW4nLT4IiOMpS9iz53jG4+2TwB8vVNKEX52ecOwCuDLfrljx6Vj44nj0ZcTgoCFAqbYsXbYdrdp3XNqkP488fXA05q5AToua+yqgJL5s7Bw08+h0mX3ooT+iXj//39frz58So88MTjGNMvnzs9xli2tcitWrdWBEFowAa4mCgssCJwilD5Yu4S2LgDzqZg2dr9atRoYYhAB1L/dsqdVi5dD0wZ1TrL5uMNX21F7yEjsHzNSiz8eBZOnf8B+g4Zjetv+w3OOHECufzU9PHFoKy0CA9StvbAUy/ivF/dikH5Mfhs8ZdY9uUSrCP787d/fwgFKX7M/ehjFBYW4dP5HyO52zA8/cyj6J4huYH+aSnjzFMVrY/mehxuB2Hw3883KhaPXDI0MPzgqaeeakBfRjJtydox42/X+vEiiSwzLO3kw0itP0BDq52zlqBpaymiM5OQPLIX4rqSxSPvmQ0eNBaXGx/7fhplyfeOn/x9Weu6GFHLX9aIxopqBIblotPp48gayuCOXKqblvKd4J+Hh/s82LWXfzrnGk8Ez9joZMZjrsXMuUtx5z8y8cxzr0IR475atgDFxWVA367Ytv4LnH/5nYa6b91B1jiVLj8Tt6Q2xOPh555E51TZfgSwcd1WOEmAJPLPUurknfrPgRVHVVM7NYG2bC2ydg0hHmKrAnoOH4dHnhnC+pRhy6b1ePDPf8Cbcz/BlRddiMhnX8P0owcikuUmJmegJ+NFl3J3u2b9Bpxz6mU4fsZZ2LnxC5wy/We488br8Nvf3o5LrroGkVGRmPno/Tj/lt/jf68vwE0XH2/UoA0P8yciOA6Df6tBtqdDafII1PUnsF+4cCEeeeQRo6uvMIrt4XWzdV20lW5JFmWiCeuvJZCv3onC9xciMjUByYO70iVDhrGy9Xm8aKLxlotsnQCBXtGz3DTU8kmDh+qcDvL1PfUNqEmMQKfbpiF1SBezfdbGws5thXa9xhGbijY8npYahI8Onx7wk3pwEKCdMYzMVlaI3O79MeetNzH0yGPx619fhN/dcz+SSRXTQgteWoNv3bp1t423GDliD4riT4DHS74+89XYraohcaH5Y0iW1o/zKe0q+VtdHRUPDOvIWkpa3xUZFYOUqFikpqWjR4+eGDfuCPzld7/BPf98FH/7059x5MjH0CEh2rgK75CSzFIiMHDoUBJkvczQTejbD/0yM/AhXY8PGDscmSnp8NHYbMCI/nQ668DXX69l/SazSEWy59e3q9C6OofNcRj89+JVCvRF6c+bNw9zaQkpq1wFvujYsaN5endygL3Idq9vUfnNCwDR2c49dd2XG1G7dB1ctMJN7N8FsXS1HJfJgc+BK318OVyT5o5X4E+wD/BbGjx+8vk95OvXxJMSO3kwCo5kzN0OdNpGykm0vra9FtirTDMvm7/3usLhG380PUASgm/cy92dDZ/MWgwHEaEiNhfjh/UleWEjW4a+nQj8Igby+4wydgDfbpxAXmNFo4egL0NCHtsk2OVgSk5OhG1TJdy8SQuAwVdhPg8CfvOBxPgkIzP4dt66IhmXhchS+4yMTcXlZLEu+Gg+Vm1fi6LtpUjvlcvbuPJw9bHZKcNiuSJejGUxefuRNAyTCnSA93ipI+pgm7XoaczXNVC9mdUIybR2X4fD72oY/PfincrH/m9+Q02FoC60QF8xUENJg769kiaKkqGaOHm82+pQ+Po8OOto2p6XioQh3ZDUka6WnU646smTJZVvePmk8qXCKTcNbgK/2D2i9qsb6xB7dD90O3kYvW4yYpNph0qxpqVVnjXZNN/8nCASzoXJf72Fwy/5jWSTAs7G7Zj58RLYexyBi2dMNYuBBLMOqvr6ZZHLceAngO5uEyhItwgg9Y/u8DMgEK9pG8Ax1L1HLvwLd6Le49apWSgsyW8AjfUkVLiz7piXb9SGlcPuUkAaDgRus1Fg3slpHXHWCeNw83/mobah0WJNcn4EtFAFyH7lkJXqqGQP1Fkw49gsUDzWdaO+oN+N5TB39hJ6t0zp3VXhsLsWBv9Wr7SZuuY1DcgqRqCSZa7CKJ5zzjmYPHmyiaHb6pE2OBStJLpKw9GCWU0Qn6gUXhf1pUHvoaFV0/Kt2LF4BSIJ2nH9eiCuM71upiTQJQP59nTJYKh9447BZSh+kMfv5g7ARj88PlpFlmVHodv5pyK5D/X1uVioHDM7edQyqYNX+SWBnUWrWdfM7eGPw6oHZC4loF7xyWxsoJrvtQwVKhaKzQh6OB4FiPzdHvBiZ9Fy/P6vT36r/fIX5SC1L39RfjsB3p+Em//vd8hMdiLCZ8PQyRTkPjIXOxiHWkPdRyC3ezniSKFv3bkDAV8k+o7sQVqc412bBRJTbg45epjiyOSum9pDpN3NeBU1b7wRBpyIS4hEVCw12hhRDgo3J//hnCu2CB1bRmOaP5pf8glk44A2DE2tDMxVWcndhBYMK2yodgK8h3mI8GmZE99q8mFxIQz+rV5jiL0ilwwydV+5ciW6deuGf/3rX9y6iqWigdfWSRPLQDwHsKGhTAEqye53wNcUQB29btYs32ioFPH14/OzEZ2abAa1a2eF0eTxU1XTip9bZQKsBHiuaFpuRttyZcWhw1mj0Hl0Lzg4sbXUBEvcpTGaHMEUPGg+D10Pfx9WPRAp6pzqnm+9MguJGbkYN5YR10jhizI3GMkRIXA3Ft2OSKPC3JpIMp3BQaI9gWGzUHhrpwaRg4DqIAUuSr3/6JNQkPsAFi1djfOPP4r5ckXhAuCqq8f6wkIkdx6GycP78DnebKPKpi0CTo59u13LQQQBmlQ57/fzd/kFErlkI9ivWFGM3n2HoyeDDMmyV95kNYBtXFjk/oE3mh1LQE4M1Qb+zKWBh6ow68sFTmuN9Jn9Wgy0w9G6wHS4A7/aGAZ/9UKrJIHWrbfearR3rrzyShPaTj+3D/AzY41J/smAylA6GpgaoByo7o0VWPfCbMRT4BWZ3wEJvbIQn9uBE8pBQS5DKMq7pix0ydaRoZaH6pvS25dPHi93CuWeRmSeORpdjx5CPzzaujNnIT9npMa4Sgqnn3gPcLz56orxwtxPkd1xIIb07cIO0cggYJpBwmN+S8GgQ24P/OlPf/pWh+k23WPj4BJAC1y9kVoELFlAXEoXnHHGiXj0f6+j+rbLkEyy2keAryjZiiVLt+GGO+5ALmNDix/kraJV/NV/xHmX3YhJowZwXarE/E+XoUO3vuiZl8ZiTEEoXvslnvrgKzz5+mtIolYbuDNRHW2cTH4tLgFR/6w7AZ7rEK0ATC3hNV9+gj6XAV5XXS1jRT5jEp/RD6T+D/cJ8pME/xDlEqL0da64ue+//z6piRXGH4+MtdoN8IPDrHmssfwIDVpSYSR24N7KaFhLC1G1mlRRp3TES5hL1wwO6kp76JLBVV1h+Ple8vcVSMVH1o74+14KdH3l/KMxV2P3ZPQ+92SqbpIq4nZX/FdD1Wg+cJKKhgqncA8I4datXIXi0ipMO2UiMhMSySen9o+Qj/+1CIh6F47K/XKETnabhKpyG67do+REZFsaaoO6Nxx/515yBb5YdRP++Pu/4oKzTiGoN+Llpx5Fn0lTcdEpx3Hsk5rnc288+TRe+O8LqHHm4JgRf0bh6jW48uJfoHBbBdVMr8MJ0yYhwl2Pjz74BH976jGMGtCDz7m5mDiwjYaWc5d8RYrWjbVfL8eKjetRkJeHpZ8txMqSMgZPasKCufPQLeUY7RMwf+GX8NG4q7hoBZYu+RqjhvTnnA8C/27beHhdpPEmkedHkBYv/hyLF39h1u/LL7vkB9U41GSBu1g8jz32GHbs2IHBgwfj6KOPNi5tDwjwB1vhI/Ab3iSFspWfrkLtqiI4EmMJ+jTS6pINezL1o90k2eV/hxo8bvLyAwR8Ufs+ulr28zkZajVUVsPWswMyThiGFKluRmu7G5qses08Dp6Hrv6gjgw//KPvAc2FnUXr8fHCReg9YiL65+eQ6JVtrkUJW6PG+jSbxj22ODi+zO86NlwW6yPojrl0ZyFmzf6Elrk0POSuVDo5Rx55NNKonimqR4LYnRvX4umX3sPAseNJ+Q+Dx12LObNnUR1zHRooME7PzEZGh2wMHTIAeR2zCeJcpqiX7yJxU7RsCZatWw8X5VuOqHh06dkdQwq6YOG8T7BtZwmpflogxCej39AhiA00YPEXS6hi2kQuUzSy8jriqDEk+LhTaIlHYZpx2H78pMF/6dKluPHGGzF9+nScf/75iI2NPeAvWtOEO1b4Vu7Exlc/RASFV7F0s5xEaj86h4HPPdwKk8L36E/eNwn4MtIS+IvS98j7ZkktilGLPldOR/zoHvJsSwGcBF2kwMzu1RIkq3EW9d96oh7wJocLPIR6wE/K1whsSRT4yUe3kV9PGS19OFlCT40Uy3xL0B9ijezaADFjyF4xrBLDmOGxdpscb3zMR0A1/HyqfvoI8pJxkSlvfpT7B6lf2jQJuOR4CeIqj4/Aw3sjFBPADFd+mF2FtQsRREtCJtaSkhHYMk+jnSbKJliug/x/Ly3VFarUZvewLFkf2+D08ViTQ3XhTDHxKHw85iVZzlsskcN7d3xYs31E1YQo+BC1L5cMYu1IZ7+0tNQ4YpNQty2Th4Nc22aj6saxKcDV4ArGNDTEt7bHHIto3LAD5Z+vh2fbTiT2pg+ebvzLI6uGPFMvWTl+UvSuYMB0L3n8TfS1H1HGGLqMotVYQ54/1RVsEzpj8PQxiM5NMYOXBfFb2kOaBdbk0JFJ5qD5LHQ1/P0T7QEZWRn2DNtv56hVMuOGQ8QMWXNF4+W7gFCsHt5jhpU5MsfmlI8ZIas5cTBvnumY5Vp5Bu+noFgPCZCCV3gsORXv43+NYnPMA+uStSSx9uaC+W495s0x5z9ZTsyFwM8MzC7BKgN0LRHKWy0WeSS5sJI1b6zjw/nzsAZ/vdwQ6OslSl//n//8p/kWe2fIEG7/2oHaF5WhwS3Q16A1BBEpETlhM1cI/N7ttSj5aBk8tDqMpMOppLH9kEDVTTu9Z/rpKM63o5pUPYW6BH4X+fpi+VgsHhpuldWjlo6pIoZ3RfbkIUjsmUWXK8GRq4ZqtjSn1sfNF8MH4R6weoDDo2WEWCct57v8tp991pyfyT54Zr6+fRy8YgoOLQIqtvm4+YZg3cycsu5oqZ51k3mGhy2PhK4rw5ar1tMt581ltWR4WB4d1uAfemPi68syV143FVzlpJNOMkZaZuUP3dSG3zapkXEsaUdK8ZFFzRD8zSJA1U3Xki3YOvtTODskIKlvHmK65yAiKwWOOkbLoksGw9Mnxe+TELdGVrr1DKBOFbhSCrZ4XuisR/9rpyOVap9+qjNz505qpfUgb8PGhLMK90C4Bw7LHjjswL81pS/Qnz9/PhYtWmR0l59//nlkZmaa3UB7Ab9GicWNtOgHS92N/Hdp4KzYglrq7LupdZAwsCtdLTOwSkYyF4UIGnFV0cEarR0pzFWsXI+JoUu1TfL0xed3V9TAneBE4ikDccSxg+FIi+UCo6XFYu8Y3eUW4uWwHKzhRoV7INwDbdcDhx34q2sE7FLdfOCBB4xx1oknnoiePXuagOmt5QBt14275mQ4kGa76aD0rGlzBbbO+gxRdT5EZCcicWg+VTczEEEf414FQ6clsY3ALxaPlyweCXTd5OcHyqnVQ4q/ytWI1OMGIOOovkjsSL5+hIRxEoqJm2oavGsFwufhHgj3QLgHvrMHDivwF7DX1NQYlwwvvPACLrnkEkyYMOE7O2BvfhTffndE9Z6um3vF46dGTvXi9ShZtApx2fS2OZyGWrTOjZRLBoVQZDStJmOsRQ0eBlKRDx49A7poMGEV6b+nMhXofdN0JBXkUUHChk0b1iIlNRXJKWkUK7AkUwkWZmq4u1ruTQvD94R7INwDP7UeOGDgH2LHNDLSjiJfpaQwWEgrbZz96fhQnnpWXjfffvttLFu2zLB2RPWnEiRbs3d0f+tn9Fzr33W+uyQLXPHUxcMPrQKCWS/970QEBUeyHCQ282eGrK72oJ5BVWqWrKE2jgNpw3oY0Ld3iDMqmG6FUCQ/30fgV3AVOV/zU19f7pb9ZQ1o4DV/biJSyeLpPmEg/HEySaF2EPMv3LIVr7/xJn597XXNdbEOwsC/u3cXvhbugXAP7L4HDhj4h4oXO2bmzJm44oorDB8+dP2HfH/99dcmdKKsci+44ALk5ubuMTupd7733ns4++yz91roa4CeHwJf2r8YrBXbRbrQIr2NZ0SxYOhC0LOuApveX8DQeAHEdMpAFOPmxtHrphYNuV6Q8FYuGdyk9GWVCxlr1bipwSPPm3Wocdeh488mIn5ULzjT6bCKCs9Gj4fPS4g8etRoPPLww9i5s9gsctbixR/CKdwD4R4I98A+9MABA/8QhS2d+rIyRuThItCpU6e9orxbtycEc36fH8UEQAH54sWLccstt6CggDFCSYmHqPtQmXo+RPVL4BsTE2M8dN5www0MDDHOWPS2LmPXY5UpoxNTNj+MSYt2LfxnKHI65vFvr0HpvK9RvmEbUjpmIorqlwb8Y6Lho9fNJmrpSGff0uQJ+eGRawZS/RTw+l0+NPZKQa9fzKA8IM2yC2D+KlcLjQlWzXrEREebyGHPPvssrr322l2rGj4P90C4B8I9sFc9cMDAP1Qb+cEfMGAAvvjiCwP+oet7+g4Beevf6wmmL//vRRQWFaJX797G2ZR87YdSa9BvfS10/eSTTzaGXtdffz3Ny4+EzseOHWsicoXuCT0X+hbwGxZ7kPdj6fATlEvoI//zDahn/Fx/vBOZR/RCLPX1ncmxUDStxpJyArzcMIjNQ7VNWuX6qcET4J+fAt6GWurrc6FIPKYvug2ndW40WTyyEeCyYv7LSIYkv8oz5bMiU6ZMwdVXX22M1Dp06LDPC2ioTeHvcA+Ee+Cn2wMHxb3D9u3bTfzb+++/f6+ASwvAokWfc8FYgqKiIrpa/hqnzTgF06ivn5jEKEFExT2B9m5fLVkyJaUluPSSS/Hlsi9p6BWH/M6dcerpp+Hcc89tDtQSypO4a4BYC4BCzem61oCmJZux/YNFcEbGILpbJuLokiE2J82AvuHn19I4iwZZNlL8tXX0q09Bro1ull2i9stqsD1Qh4JLpyFxZHc44un+1vCUZBDABaAV2Ldug/pCgl75I9LOadKkSWZXE6pr63vDx+EeCPdAuAf21AMHBfwFYA8++KBhv8inzvcluWR4/fU3GVTlFVRTLfKhfz+IvJwc6zGRw0LlfUgmdBzvf+/dd3HTzTehtrbOZCEXDOkpqZhx2qn45YUXogNjhhrgZ/6ivmW466ODNd+mMrJ4vkRTaS3iuxD0aaQVnZsOR2QEVTdJ5Rv2jvXtI29fVL+bbJ9AOXn7VN/0kLJ3jsxH59PGwBHk6xtKnwXI5YkaJDezskkXxd866TTA31atWmW0mi699NLvlF3IB4rlc8U8aEz5Fc7O7XNhx5ZSNLjqkJGZRwF84nca8Leuww87Vgv0wvitFY7HPi3ePNSrVAp+8Q55Hw3eqx8oVzHGc/zFkrZYv5qsmEHwTHeGU7gHwj3wPT1wwNk+ofqcdtppRuh73HHHITs721Cvod+0OGzbtg05BHgJaP/73/9izZp15r4RI0cgL2/PAt1QHt/5HUSX8RMnYAgDPX809yNzu4N4O2jAQHTulM9A7aTaGbc6BFIm9qfh66+Ad0cFIpLikTquAPHk7zvjyNdv8sDF68YXD4EepO5dcrFMLR7D4mFQlTq6l0igS4Y06usn9+lIB2yWwzWjsimQI/AL1Ez1LGckLUhoaqjqWDuPrKwseiSsg7Sn4uPjQ79+6zvgtwzBQu2QAdryxfPx3Nsf4Ig+IxgxqQqLPv4Xhh1zAqZPm8wqBTvnWzn98AtGVsI+9lOQUbxpBZ57/jVs3rIDDMmEI0YdhRNnTAaZZayq6qCYS/S6zvs3rluG/735EXLTMrGztAj9Rk7AseOPMH2jPLW4me/Q6vHDqxrOIdwDh30POO5gOtCtFIsijr7pIyIiDAUrGUAo6bclS5bgsl/9yvDgFTxCC8RIarm4mlywU2YwfNiwZiox9Nz+fDsZylDB2F959ZUg4NLpU1wsfkX7gHyyVIQugiF7kw2189Zg6+vzjTpnAoNFJwzthsT8XAM6fgK7p6QarjK6ZuC3l7FyvaU18JZUwVdcg6Ydlaj0udH9+ml0tzwUMXlUc41gzqRWjVfCVqD1fdAbYu9IaL1w4UKj8aM27CmJRlZEJOkMSZawdeUCnHfxbbjk2htw7JGjUdCnD/Li63Dp1X/A8InHoFMmDQvaKWl3Q7+OqNu6CsdMPZ9HkcT9aLz0xEN44YU34E/vgaOG9WLpXAKNX/UIbP78PUw5+0qccNb5OOWkSchJj8ct11wLf2I/DOiXF/RAyffUeuvQTvUPZxvugcOpB0RoHpQk6l7C1g0bNqC8vNzUQdfkjkGsjMJNhbjv3r9BcoEpU6dyoSBZbEBSlG/bVFlAOnr0aFOPPgTBsWOPwCayU/70l3tQRx38QL0HDV9tw7aHZ6L0y7VI7t+V1H5/JAzugUgKdN1yybCNQSJ2lKFpWzm8Wyrh3l4JHy16vUVcDDZxMWAs4OiTB2Pow5cjYVi+4mGQolWgC4vlsT+NUb31N2LECBNuUvGG1Xe7S6KeDSXNPnPXbMGvr7gFXYeMxch+vejYkH3qsKNg5HB4thfio4WLd5dF210jRe+uKcWd9zyMx194Bs88/Sgd7f0Fs2e+g56d4/DwH/6CQu6UtOSKiVO1bQXOv+h6dB06FTMmT0BkdAx69B6Ec2ccict/eSo+XLqOfpPEL9K+Ru3ffR+0XQPCOYV74PDpgYMG/gKvhIQEI7T86quvDHjNmjUL1113nVEFlbfNwUMGG7mAsF73Wyn0vf8vIQSeykHHF5K/P4I2Avf+7a84gZo0s9+fhd/efgc2vfQhSucsRaBDFNLG9kHKSGryZFEO0OhG0xZq8Wwug3tLBXxFVfBsqYJrWyX8RVwAiipQWlWB2El9kXPDNHQ6YyyQKC0eARXrb3j57Poge2N/W6LgM3JNLR9GLf3zzdzkRNckxml94/FHMHvZegasOQZxUXJjSxqb9XHQEZ090IjljITU3qm8tBrnXXMVBvclhc+diHYkBYP6Y2ivbmhqrECdy20w3EY5zweUySxZvx0nnDkNMU7uythfgYhITDp2An1hV+KpR59Co4d8ISbLLfEPHxvt3f5w/uEeOFR64KDx/NUBUvucMH6Coe4zybq4+w9/wJjRR+D0M043MXTjWvGyNa3119a0nUCzX79+yMrIRHJ6Bq6/4npsWVmIN954HflNUTj3nHOQ3D3XRNby0iGbZycpfBpryZe+iaZl+PrU0zfqm9TiIbjV5iei4Iqz6ZufwViIsMbDswF6tiH4LcgyUKUG7SdmafHUjkVsMu1gdpe8DEzhZHwBT9VO3P/Ic0hM7oDeA3tafclyxS1vqNqBCreb8gN6Dm3PxN1Odrce6MhSvayBxAvaAHkYWKPGHcCwccejB9lO6i9vQzXmfTofde4kjB3Rz9xo+pH1ze0xFN0Y3Wz5FwuxpbgKPWlEZ3XhD+jM9mx3OO9wDxyCPXBQwV/90bVrV+N8bcGCT/EW3TPEx8VbVCxn855YGXvbj7uDAl2zlhDBhXVHAgWOsWlO1HxWCP9nKzF96Dis2VGE11bMwzgbVTGjIgn6VTTGqoOLwlw3tXccVNt01dbCWeoz12Ss5cuKR8LJR6LTxN5U3WQ4LeZvEfdBaGpmzViMDaG+34TMEwUcFFwSDfVrqG48+M50wgknYMGCBXsEf2MkRup65ZKlKKyoQFb+OPSikFpiYDvRVJT32hXLUcfAMrGMJbCnJFaV0UDi/WpTSwu+/YR6VW6mLZaM1XbdZbXMahvjRZkrEmB/9tHHSO06HH+/+zd0l8GK+CLQVO9F4XqGs+yQhfykBD6s4HpWCkTHYUDXHHxAZYDysgrYGNReC0MoCEnwtvBXuAfCPfAdPXDQwV+UtxywSeXyVKpYWmHdgjAhFskPSAZQBaQEIlHazeBBILGR9SLAoIMeeFbtwI75K+An5RvfMR1Txp8OV6dk3H3fn/HIk4/hT1ffxuhZFOIab5tyuyzLXKpw8s+/04cSRxm6TB+PxHE9EUO//F6Fw2OJom5VhDBfgaHJmuc3Twx6ml8sga/uYRxSG0PMGVLYQlde/f4kiv/ll182/pKionYH3qxDwIO16zbQ6V0TGjatxVknn8R+ZsxUgmyAO4PG7Vz0bBHo8h1aVNIS+vqz+Xjg0adR73YxTy0CUiP9dh0jIqNx3qXXYMLQ3vwxGBfJaq7pESN+Ztg+V10Nnnj43/j34/9BQlZvbKVgPCs5gQJqyie4EymhTCUutZ9h+WhEaCET60wLVkZ6Guo2bkE1F2Ob6qGXrDLCKdwD4R7Yqx446OCvCZudk42JEyfik08+wVQKd9sqGWBi/obFQsMuE66TwOon8EutE6WNKH/7M1Ru3UnHa3mIHZCP2C45cEY7cU766ZjHADCz5s7BuJ5DMSm3gM7XyBYhy8fNgOk2hlF0yTPn4A4YevGp9MNDT50qkODkIvEaRcT3RXkQ6Y+kRgqPdd7khY/UtcNGraUAJb/SYxSIsip2A/wh7PcZcN0bMJPWj7R9du7cuVuLaUEvQwlgY+FauKkWevVf7sSdvzqNBREwjVFBHS6ePAWfUjhd0LXbHrveQSOInXTLMfvDOainG2olAa66cdcURcp8yik/Y7xWH2Haal/oXeheuaKuokD9+f8+iw8+moeKkjKsXTsLJ046Hu/Mew/DGETcTVZVPRdjW2IUef2Efq0IBt/tjMfKPCMpPKbqbCNlBFqElGc4hXsg3AN73wMHfcaI8tffMcccAwVUr6+nRewPpPhbmk/kF7KKCifQGsKQ54HiepR98BW2PP8BhaVedGAIxeSxvRBPFU7uB9BQUkGBbinOHjMZ6TFJePTpJ1C0rhDuzdTe2VSJ+mIKezslIumqsSig+qYjM8bAoN9Tj/fffgX/e+EVbC+vICBZGkrqZC+NqV5/nmA3bzEXicggrqtGpoL8JpQGqysqd29SqJ/y8/OxY8eO3T/CTL1eUtFl28loiUaPfj0tECWYSx7grt2J+UuWI512A11ys3efR/Dq0cdPw/oN61lWMXYUb+dfsVl0tPC0/ttctBEzpoxjy9h+szqo05WJVFut3VAyjekuvfxK/O/1twxv/+yTjkJ1SRFefOFtbsYI8AxwE0d2Gyj4tTSj+Hiwf6QG6qegV6q6zihGS9ZiYIoI9WWwwuGvcA+Ee2CPPXDQwT9UMxl0RdNp2aZNm0KXfvB3C4RamiLkw6B2wRpsI+g3rN6KuK7ZSJ7QD0mMqhWR6KCfnVqqa5ZRa4d/WyvQPToTI3IKUEQtlJmfzkND4U6U0Otm1nkT0On6Kcig2idiGAiagNbUVIZ77r4Dt//1SQweMQy5GelcSOxBzrafgWTi0JuLyx033IyPlm0gkHEnIsAikImRYf4LuwyJvHevRTIR/cmLqVxm7ElGEvB6UMc4B157Anp1yQuWYbAURau/xhbuYLp07YXu+Vl77HNp0yhmWHD7pOryr6WHd31Q7C0HQdmwY8zdul8rgZ5UMo0lG8eJTt174/bf34BEuLFu3WpaHXsR5SRrh3EPXLVlqGH/mjWExVkl+lDLnUNsYiISpBQg/h0XstCvJvvwR7gHwj3wnT1w8Nk+weqJipPe/9NPP238/sgA7IcmgaoAFi4/PMW1KH5nAYWz9cYdQxydr8V2zmQ0LSevERgVRUs8fAlyyUcOkL8fSQ2e47MGY9b6xZi3YzWOPv44jDp3GrxpkVSPZMbUUgmQXWNDA159+mE8+vwneGP2ayjIo9EV/fa8RBuFBds9+O1tNyKNTt96DRqIZF85/nj3wxjz3B8RZSOYMtHBAWrISolPjOWZlgwCmdn97BlczXO8R4Av526yiFbSeWhHYM65jiirCAd9B0UkITONvpDYL5KtOGj9u2zRCrgI6sccexJdW1CwuqdEcN20YileemsWmqhaqnpaKQTmLQ86qI557MlnUX2TRnBGrZW/CZ+1eHBRsEJOBtlB/En3dOw9AiN658HpiKMhnxfOmFh07NkZ7mXLsZ0+kpKS1Dd6n6y9pwErC7eiQ94gdEhXGEyrjS01CB+FeyDcA9/XAz8cYb+vhH34XZa+TzzxBD799FPjajn0qACtNVUrQDfYKNwhqBiaL4iX8q0vGlUAQ7kujZdqUbl4FRo3FdMwKx7pA7ojMj+N9gN0yUB9/QZa5colg6eaoM8gKjDH8rxZD3tZI7K8sRjRZwCWblyD+t6JQEoEBZIsmPl7yNN20gnbtlUL8Pt7nsDPrroNvXPpjpn86rL1i3DZjX9E3tDRuJLePJPiU2GPiUNH2gnMWf4pShilq3N8NGpryvHeW2/h3YWb8cg/b2eDFJqR4ErW0PelUJ8kkgKurKz8FvDreS//RUREIze7I2UNm3hFveVgHT1orK/GB9QUyu45Bj879zg4gv2p53ZNWobq6YF0NY3gGqSLb8BfYuBvJwl8jziKcgG+C+noWFo41p0+yl6k4qkzLXIGzFUnLihVjT6M6DeAAl7KRRiqcvioI/DU/+jQ78vVKBg/hA9Z5ZVsWYWNtKI+8rihtEhOpmyBi5tZAb6jAd+uZvhKuAd+0j1wSIG/qH352L/rrruM9WpkZAsAalpb8GEdmQVAyG+uiwFhUcEMmUsg4L0NBOB5X6FyyTrj+TO+f2cGTM9DFKlbr7sJboK+hyqb2gkESO0rbKJPUbUYQ1dxcz10z1CfHYMuvzoBNycciRMYB/iNd97C0ZOPNWCmXQU50yzdhSf+8W80Rqdg6pSjSGFTe8jnwLolK1FDeUJ+9wJS20kEXgIXKxegHECeQR3883obsGrNGsx/7x28u1pOy2h4peaREjZfatx3pBCFL3fW8vGzK9WvR8VFskXEYCS1gtIefwtrN25Hp75duNfwGUr+05UleOKpp9E1MynYm7svkLo2KBg+Bv8cMMyUs/u7rKuqV1RUDBdoAX+rxDbbGHGturEeUfTGGq1WchFVJVcunINtjhycc9okqnuKlOfugcL/Ln9+BO//71WcOn4wYtWH/DefnlSrAok4++enUS4gtpvcRjTrFbUqMHwY7oFwD+ypBw4p8Fcl5aZYO4DFixZjzJgxcFGtsIz63KJslQQsGzduQjIBLyU5GTa6JxBHWDxpaXzYqR/eRAvbilmfw0NBZ2pBR7pbzqEKZjrgJK1ZXkPQb6R7ZYJ/TS2a6qizX9ZESp8hFLUASJuH1qSRpwxB/5OGAwkOdPf6MGz4MMyaNdvECE5KJlCa8hzw1Bbh5dmfIbfvsdSWySUQOQheoDCUOwpnLE6i+mp8jADfhka6kV5VVIzO/cchPSGGwEjDpuEjsahbF9hWbw6tbmqlaevefAjw5diturqaslE6QpNWTKtk6G6WPe7EGbjkgiX4z9//ioxrrobdVY1/PvQcfnP3PRg/qAuf0ML03SU7uDjH/QB2HEvA7Deex2nnXYJhR87AzTddhU58L666Ejz71hK8/c5L6JKTZACeH8jM74f77rsTt/75Mbw782P8//auBLqqKstuEjJACBAyMCWQBJBRQSYRBIIiICosLFDEoUCwtFfTpUB1CYpVWgpVtbAspKurq1zdJSplqwii0paKMtpLBESXA0OrIJOYEEAEAmTsve/7PwkhIQmS/0I4N/n/TffdYb9kn/vOPfecIX0vxb5dX+LF5avxi8cexQ0UCGGSbnxxcJZWpfptu4aAIXB2BGod+au5N3KUvXvXbixevBgfbdoEuX9ok5pGodDdjTonTpyENinJ6En3BoOHZKAn3UDU46RfztdZOLhpGwroayeyZQLiOrRCVHI8XS1Hooh645N03VxwiB+Sv9wsK7CK9vMPMpwi7fi/LzyFeE4AJ17dhZPB1NsLHRJnPbK5AsFv2rgJy6miue322wKoFuIwBVNWznEMSu+ERpFOkcFrhdSLn0DG2J9izJDeXhk89/66Ffiafvz/NHUyaKnIJPWUvqWK8RQpHu2fNl521yr6khDSG5JMPuUjSd4+T0tSg1EgREU1xsNz/4Avtm+htc4eRPGex373e5qJcmKafSzUxHPVZc5pVVT9IAzd+w3C7F/PoulpNlb8zz9wySUd0Cq5Oab/cjriabsfRvt/Ebmawml6DOHcwb81b4uPP92OlTmHceRwFm792VRc597AtDaCgpV6JAl+Qunuq3p7LKchcPEiUKvIX0QWVF08teApbPn8CwwbNgyzZ8+m7Xwetm7b7kbHzz33LP73/XV4+q9P47lFz2PShDtxXYtuKNj7PZokUZ/fh2abaS0QGUsHwdTr59G7Zi7j4xYEJnULOKEbRhv/wiM0/2EIxVOHDyGvS3N0/ulo1E+PRz1ammjOQJSsNomI5AKiCVUVr732t2KvuQAAFRVJREFUGibcNsH9xWgVa1R0LN0g06rnJBd/kbTqcw4g5+gBrHr/Q4z7+ZNoGh1FUpULhd14Yv5zGDvl57jxKloJMUmVomv8dXVIpeGSWLiaRCxrKVlKlSV/UaJ04uEsU0Kw22U90Y3zAGyp07kLUL4v8C1Ebww1S5/qVkKrVEyfMQsFXFyn9Q8RtPaRbkg1u3cWkjnpnMfCnTeERaJ3/4Ho0Zemo3JgR71YeHgEWy+BxTv4uqI3CkuGgCFQPQRqFfnLQZkWeonsO3TogGUk2k6dtUoU2MBRtwSDWLEto26lpbbFuLHj8BLDOT7zn3/DZ1EfYPrtUxDXtwuikugymURxinr7QpE+R/ma0NUkbv4P3HKRVq4mdrmf37QBmo6+Cs2H9qBfedUkNRJJh6QvC0K5KFC1UkclJCRi544dzqZdsYDlFK1JizTcNX40XlrxBl5/axDSkxris08+x4CMDKxm+/u1DHeeLP88fwG69BmC2TOm0JrF01OrNs0cqFfeh9+SBCRA7wwbUMUUHx9PddiOctw8aLqV9MhyPXNNlS+xI8rkvAP3NAHrOql+12BypXP1c0EYVWMUmJoHCVMEHSYJAq5IIO3rT5LrD7il2PR+OBdSX7o0iiknF/kl8eAWdgkv0/gTA0uGQPUQqBXk75E6sGbNGjz44IMYzfCM99x7D+KbuWgqJAVHx+yZYynqtT2SiuK6AIVd7NS1Mx554EH8ccWL+A09bybSBjyXKp0T1OkXUc1TxNCJ+SR/jfILqdPPoUA4FpaLlqP60kUzhUVLWvGQg7zSva1I2FO+eGc1spZJZSYXNskNtUf+JCdOpk779eNI7vgKtm7ehMMtm6PLZb3Qi4upEl9fhg/XriZh1ce4u6ZyDuNKWv1Ek7i8MkXIenvwktdL0Z0ue6NZ5ataSmLbVq1a5Uo+/Q73fuHq9GoQbbJnrmhOWZNInRggwXrvOqfffd6P3CSwJ2BF926VM9ujMyJxfcv00/1hOii8VvMsz2vfExbO37/2qe5xN3lf5725VqAhUFcR8J38g2qerMwsPDV/votJO2vWrJKJywA5BtUvjjCCT0PcQaLo1bM3/kZV0HXXX48Xn38BU64dw9E2R/Uc8YfRdl+j/nwKgELq9o9RIIRfmY7L7xxOV820SHE8SJNEliPi0SeYgvsabcpvTseOHfExPWju3bPHZZHduvLENGmBifdMDbyZsAySlNKYm28745zOO6ESyKMBrRub07ePZ0HqtcONxL1idEulqXHjJjiQdUAceXon3J3FlMkjlh8o150t3lfGALG6e2rmS3p8l1ivVjQEk9cMrpngjlsPoAvBhgb2Rf0unZZH+YMCwLts34aAIVA5Ar6Tv5ooAbCUzskiIiIxbdq0YvKsvPleDumzW7Rshdl8a/jLgj9jKK1EEvKjGSyddvwKls5P7tGTiGoTjxZ3DUBcv470DUPKlaqBRCKB4plYVlyj2tiJ5C/V1N693oKqsrmDpF/6fHnnvOuuYtbsqV+0lZmqqL8e1wm4xVGlC6pkvyktkDThK0HFX0uGgCFgCJwVgVpB/vLns2jRIky5+24GEo8rbrB7K+BIVoRWkkiWxW8DnuAQg0tdMmjIYCxbugyvv/cuJqUPdlY8uQyxmBtP52d3DEB8/w4I40pRT80s5YsK129gBBosuKSy0/ZSU1PpmZMWPpogphDQquRzS8H3F3ZMDsy4HqDeKa41YItoPMr2yFeNOh3oaBUqUeyD7IPZLqdws2QIGAKhRyA42HPcJV7i/6LOBbehb1HFNZa8d1ecp8avKBqVFj4NuGqAU/cEAQyCtvmjzTT7fIVUyB/me+ih2QywnuP2vXEu7XI4im8W38wtDnv3k004sTuL6wMOo35GR3SdezsSR3ZDWBwdsLHHMsjUqD+oQxbN5uvrLEltacZJVdUvYZXPxUrVTyJl2RC5nrDPBXj2meew5M33cGTfFsz9/RNUKX3HHBr/a9lS1ZMC4xRQMFkyBAwBfxAQRxylfzAZXmhwqIGi+Kk2Er8QqhUj/0205deCLVnUKAmsYNLkquYAkpozqEdqGrGs59w/LFy40K0HKF7UxFtkatmc9v8NueR/e9xJpI3vj/rdUrDnRDbCTsi00DN5dANq7gdVJOJ97zF5oiRYd3DrDA9ZvnzMq77s7IPYvXu3C0MZzFOVbUmvmDtwcM3wkVw1PJJ9prko268L+/ft5ZbqHzWsiikvr4D+ffbz8627L1hXNYqoYk2WzRAwBMoi4P5z+VVQUIhNH32MD9ZvQLt27dCqVQsoSqHW4kg41KZUK8hf7ohlvhkVyWAkDp8gdcG5ed7x9Q5H/gJOgmEkJ3YLaCaz4t2VLrvcCCiJ/PPod+aaG4djf1QMvs3eirDV21C/IIKqHi0eIsXTEVt+eC6i8+jbx7l5dtTOerWVOkY6dzVCbdBWyiHPCiWf0lxyKYsLu1atWk0vpHI2VrXk9aj0ww+qfgI1sU4X45fFhXHEIFcP3pWqla9cp3LzuAr5PXdDCYIBSKtejOU0BAyBaiJQ+v9No35pBj6ixuKLL6LROLYRmlKdnZiQgGQOTuObNavWwK6aTalydt/JX9JQbgmaNS3R9av1RUVSzYQ5dwqFdAbmnRNhhiGmAd34kpJPnjjprH1E2yWpCNEM/s4QHyg6zlcvOl+T103ZhEvLTw9iLmt+Ec1AeSiBESGfO9yXMFC+IPl7C7C0EEvvBUxifo781Z6TJ2k9JB1SLUkSiuPH34ocYmLJEDAE/EbAG+iJJ6Qx+IHqIHne3cGFmF27dmX42lRE/AhXKeejd76Tf/mdkMrDA69d+3b0XRODPXt2040yR8M8LaLr1LETBmcM5jkSsLIG8h+le+aXX16MESNGoFXrViR3TqJytZZs2Au0sIh6di2iymUor0iq7fPpiM0RvlP8BImfWVyZFBesS5Y3Iv5j9ANUROKXIzX5H4phu2pLEia9evYoxs1hUlsaZ+0wBOo6AhwX8l+Qn0LsJckfyMpCDOORJ6e0Rku6XNEaodjYWGoLvFCrQX7zE5ZaSv6CxBtV9+7TByOuG4Elr7yCPdSzi+QacmQ/efJd6H9lvzPITjb4Gz5cj7smTcQVV/Qlsct6pj6pnVblVP0c4CKtD9auwafbdyKlXXtcM/BqtEhJkn0Nn5zkiN4PyPwkfB5yj0ofEr5W82YfyHbHCQmaWO5dbZ2/nw/a6jYEDIGaQ0DEr6RRvpxQdh40ECkpKRQAMbQKLE2zgYwBdvHu8ue7dKv8aUEltcpj5Zy5c5BBx2pr162li4UEjBt3M9q0bVNC/KXLELZ8Ehq4u+E7VTMFBcex46ttmPPoPHy6cy+Gc4K1d/fO+HLrZoyf91vEt+mM6Q/NwhW9LgV9s1FMSFUki5tACuxkM4atXjBiGsbQ3UCthy7YetsaAoZADSMgXtDANJxehocPp1ty8oOOyx/he8PKGm5SpcVfEAwmIDXJO/J6WsVU0iVPXeNlcg+E/mLef2c57v/FI4hv3xPPvrAIndPa8iHxwRSOwpTJk/D4I4/g7gm3Y+bjv8Xt429ApBMgLEMP1IkB7rKw4MpeOXgrHWugkibZZUPAELhIEJDJtZKIv/ykkaQ+/idPt+J/O6rYgpK5gPIlqldMEHa5KS44+DWm/stMfJsfi2cW/ju6paVxaE8lkAz76XMnrmU7PMB1A+nNwnDfvT/DyvVbaHLJSV1edg+QhWmrj8xOZerZnDq8YhPTKrbcshkChkDdRkCcVPYjC0Ilxa/WfICmFrWCRxH23CV3TvaE4hnlDF26IMjfEb2EpT7aaEhfhRRWeBJzZv0K23ZlYtSEW5ESH8d7A69izpEZy+FxUus0jLg2A7k5WXjyiT/hhxxaCQXL53Ulkf+27dsQGRWJ5OTkKrchWIxtDQFD4CJEQIzOj2YSHZPI4ERqZW906YSCHKzTSJ3ntXA0dBLggiD/c/2TOZq5C/+1+G2E0+f+oD69CL/IXgu9OLJ3AWsLuZ9PFVAkLr+8O6IjG2Ab4+tu/2qPexzew+Jjo7BRpKydO79BJP0PpaamnmuT7D5DwBC4iBAIDlxJO6Qeknu9U7Iv56/UQxr9y69YvjNNd67cnd46NADVafLfueUT7D+Wh5im8UhOSvRkqvcUtKaLuEsqc2KX5N4qJRFRDN94+OAh7Nub6TxtSt+vpOt7aEV0iI7ToulGWiv3nEooNM/IajEEDIELFAFvHF/AuOGn8Nayxbj5htHo1rEHlr69Fvl0K79vx5e4ZdQNGNh/DA4eo8uagKYhFN29ICZ8zxWIY1kM5sKbI6Ki0YDLqx2XU7Jq0Za36Ev0LidqRYhpHOuCmpziCuEjxxnpi7o4Z99Pqx/56JC+X47TxjKAjNw7WzIEDAFDoFIExP78aMFqv0HX4NIe3TG49wC8s3odhvVpi6WvvYVLe/VCbGYBowIqPl3oUp0m/4ho+ofnq5UcqBXR54YEgV516nG071bvanzPUX0RfelrObauayGZVDsKFuLl4ytaYQHWr1+PU1ytN3rUKPd03Ouc27MvQ8AQMAQqQMCxOaNY0GKxSbMkxDVriow+XbGFcUHmP5WPn9w5EZemtabaR9HtKiijhk6HuLoa6kUFxca3bY5oROAUPYAec24PJIapXyPZUyI4iZyvwOV8GziafZTTMIVoFBNLJ3NNmItPzU3WFCKPPnPWrF6NtPR09O7T2wmMCqq004aAIWAIFCNAdqFXAFkBcWgplU5hJPoM7I2NK99D+qCR6NKutXMxH8VBqJMTpvMvxu5H7bTt2AuXpScyeHo2Pt31DVU5Ko4Slg79Ofgn2FL76CcfX321myP7IiQmt0C79FZ8Tp4XUD2vZa++iixGyRo7bixvCuWL2Y/qvt1sCBgCPiOg0bXj8wLnQ8AxTufLuqNRRBRS0lPIRsrBj8zPRS0hpBfVXGdTeMMkPPrrqWhQeBxvLl9BNw2BaFkudiPVQG5kzyXZOUexbv06esUsxNU33IR2LeNpBaSHVYTvvz+CBQsWOP8cAwcOrLNYWccMAUPg/COgoaVcwxQF4o7TJSQ+3/QFwuufwOo1HzuOceplVu0ZkbgR6vlvSDkl1mnyV4Sua8ffizt+Mgwfvv7fWLbuExfwRH7z5QlUP4qk9X+fbcbrb36AS3oMxK9mTKZ+jmZYzgFcEZYsWYzMzEz06dsX7du3LwdCO2UIGAKGQPkIyJ5f1vveHGIRvty8FntzY9CvZwe8t/xDN89YRK/GeYWe2Wf5pdTM2TpN/k7FFt4Es343DxNvGYZfTr4DCxctwf5vFeicZp3ZmXjzlRfxz/fNQrdBQ/HykoVIiIl2gkHumr/7dj/eWP6GC9d4001jzMqnZv4GrVRDoA4jwDnDEz+AsZaw68ttWLr2K/zrA/ejc7t0fLJmKfYdOYaNG9bhwPHckGNQp619XJhGqnZat+mAuU8+hVs/3ow3GDJx2msvOQEQn5iA1NRkTHt4Lq7o3xfNm8Q6SSzHbkX1IvD2m29j69YtGDp0OK68sr9N9Ib8z9MqNAQubARyjmXinsn/hB8KGqI7TTrvvmci4ujauWf3Hsh7/h+4//6ZGEs7/54xUZ4mws1BhqbPvpN/cLGUU8Gcx8mOYHkyyazH6F1NmiZhwJDhuOrqoUSWV3mOb2RuP4xvAZqUqUeTTpefLqAzs77DX/76H2jSOA6/efwxRESea7D20DxIq8UQMARqHwJRDWLQgu5gDmz7BjeNGY1kupgR/wwdewsGvPoOLmnRnK5lrkak5gUc8Z9HEqwEjhCSvyYyztIxdp6999JZslXYn+C93LrbWV6xTktlM2nyJRi2WKc8/3vc8X4pABTMBTh06BDuu/8+F6h95syZiGfgdkuGgCFgCFQXgfCIRpj3x/kcbJJtSDpiIPFcUqu2WLlyNQ94xhGVMy7X1ZClYn4MWY1lKxJpK1iKB4t3Veeq+ylTrki8WJiUuVbRoUb9Csbw9NNPY+PGjejLYDA3jvYWdVV0j503BAwBQ6BiBET33jCzmJCcBOACU1kAuX0tL9WOO6i4qPN8hebssnes+bRlyxb8/e8vODP5sjVu3LABCuJ+Phoi+FTOgAH9Gfgl8YyOJSe3xoQJE1woRl0s2/3ly5dj9uzZbpJ34cKFLt6mreY9A0Y7YQgYAtVGoCKS13ml0I7FQ6b2yc8voBolx3WxLMl37toN+gSTk39lMwUvlrflDeVlPxaoT7cEhUJOzkkXgL28YlZzFe/cOXOcVc+8efMc8ZeXz84ZAoaAIVB9BMojdzGX2MmxXvWL/BF3hIz8I+kMrVl8gi+dLI1Pk6ZxCGOotbJpzZo1mDFtulP7PPTwbNiCrrII2bEhYAicGwJBgi97d2DI6pYA85rTVStPaATBmSxYtn3n6dhT9YSmUxU12alvhHcA82A+qZw00s85eQITJ03CmDFjis06TeUTRMm2hoAhUCMInDbwDx1Hhmzk7xncVCQBawTSMwqVfr88aGNpd5uRkUF3zWMxfvx457P/jJvthCFgCBgC54RAeayjgsqeL3t8TpVV+aaQkX+VW+RDxkaNGmHGjBmuZsXmdULCk1Y+tMaqNAQMAUOg5hG46Mlfah2RfemA7Kbqqfk/PKvBEDAE/EUgZDp/f7t59tqN7M+Oj101BAyBuoeAkX/de6bWI0PAEDAEKkWgFqh9ypjeVNrk6mQ4cwKlJmurTsssryFgCBgCfiIQYvIPUm9pUi69HwIoQlxdCHpkVRgChoAhUG0EQkb+mlCN4kKvkhRk4eC25Mr52wsKm5ISIyIY1N0seUoAsT1DwBC4KBEImW+f4wyinpWZ5TvIUVGRSEpKYrSukMk93/tsDTAEDAFDoCwCISP/shXbsSFgCBgChoB/CJi1j3/YW82GgCFgCPiGgJG/b9BbxYaAIWAI+IeAkb9/2FvNhoAhYAj4hoCRv2/QW8WGgCFgCPiHgJG/f9hbzYaAIWAI+IaAkb9v0FvFhoAhYAj4h4CRv3/YW82GgCFgCPiGgJG/b9BbxYaAIWAI+IeAkb9/2FvNhoAhYAj4hoCRv2/QW8WGgCFgCPiHgJG/f9hbzYaAIWAI+IaAkb9v0FvFhoAhYAj4h4CRv3/YW82GgCFgCPiGgJG/b9BbxYaAIWAI+IeAkb9/2FvNhoAhYAj4hoCRv2/QW8WGgCFgCPiHgJG/f9hbzYaAIWAI+IbA/wPZ796mt/bH9wAAAABJRU5ErkJggg==;" vertex="1" parent="1">
          <mxGeometry x="290" y="510" width="383" height="287" as="geometry" />
        </mxCell>
        <mxCell id="aLoimT9QGTSCDSDaQHRl-2" value="" style="endArrow=none;dashed=1;html=1;dashPattern=1 3;strokeWidth=2;rounded=0;entryX=1;entryY=0.5;entryDx=0;entryDy=0;" edge="1" parent="1" target="aLoimT9QGTSCDSDaQHRl-3">
          <mxGeometry width="50" height="50" relative="1" as="geometry">
            <mxPoint x="740" y="520" as="sourcePoint" />
            <mxPoint x="450" y="480" as="targetPoint" />
          </mxGeometry>
        </mxCell>
        <mxCell id="aLoimT9QGTSCDSDaQHRl-4" value="" style="endArrow=classic;html=1;rounded=0;fillColor=#dae8fc;strokeColor=#6c8ebf;strokeWidth=2;" edge="1" parent="1">
          <mxGeometry width="50" height="50" relative="1" as="geometry">
            <mxPoint x="740" y="520" as="sourcePoint" />
            <mxPoint x="700" y="440" as="targetPoint" />
          </mxGeometry>
        </mxCell>
        <mxCell id="aLoimT9QGTSCDSDaQHRl-5" value="" style="endArrow=classic;html=1;rounded=0;fillColor=#dae8fc;strokeColor=#6c8ebf;strokeWidth=2;" edge="1" parent="1">
          <mxGeometry width="50" height="50" relative="1" as="geometry">
            <mxPoint x="740" y="520" as="sourcePoint" />
            <mxPoint x="820" y="480" as="targetPoint" />
          </mxGeometry>
        </mxCell>
        <mxCell id="aLoimT9QGTSCDSDaQHRl-6" value="e_{\theta}" style="text;html=1;align=center;verticalAlign=middle;resizable=0;points=[];autosize=1;strokeColor=none;fillColor=none;" vertex="1" parent="1">
          <mxGeometry x="630" y="430" width="70" height="30" as="geometry" />
        </mxCell>
        <mxCell id="aLoimT9QGTSCDSDaQHRl-7" value="e_r" style="text;html=1;align=center;verticalAlign=middle;resizable=0;points=[];autosize=1;strokeColor=none;fillColor=none;" vertex="1" parent="1">
          <mxGeometry x="810" y="478" width="40" height="30" as="geometry" />
        </mxCell>
      </root>
    </mxGraphModel>
  </diagram>
</mxfile>
